<svg xmlns="http://www.w3.org/2000/svg" width="58.893" height="67.307" viewBox="0 0 58.893 67.307" fill="#e5936b"><defs><style></style></defs><path class="a" d="M57.316,63.1H54.687V3.155A3.155,3.155,0,0,0,51.532,0H7.362A3.155,3.155,0,0,0,4.207,3.155V63.1H1.577A1.578,1.578,0,0,0,0,64.677v2.629H58.893V64.677A1.578,1.578,0,0,0,57.316,63.1ZM16.827,9.991A1.578,1.578,0,0,1,18.4,8.413h5.258A1.578,1.578,0,0,1,25.24,9.991v5.258a1.578,1.578,0,0,1-1.577,1.577H18.4a1.578,1.578,0,0,1-1.577-1.577Zm0,12.62A1.578,1.578,0,0,1,18.4,21.033h5.258a1.578,1.578,0,0,1,1.577,1.577v5.258a1.578,1.578,0,0,1-1.577,1.577H18.4a1.578,1.578,0,0,1-1.577-1.577Zm6.836,19.456H18.4a1.578,1.578,0,0,1-1.577-1.577V35.231A1.578,1.578,0,0,1,18.4,33.653h5.258a1.578,1.578,0,0,1,1.577,1.577v5.258A1.578,1.578,0,0,1,23.662,42.067ZM33.653,63.1H25.24V52.057a1.578,1.578,0,0,1,1.577-1.577h5.258a1.578,1.578,0,0,1,1.577,1.577Zm8.413-22.611a1.578,1.578,0,0,1-1.577,1.577H35.231a1.578,1.578,0,0,1-1.577-1.577V35.231a1.578,1.578,0,0,1,1.577-1.577h5.258a1.578,1.578,0,0,1,1.577,1.577Zm0-12.62a1.578,1.578,0,0,1-1.577,1.577H35.231a1.578,1.578,0,0,1-1.577-1.577V22.611a1.578,1.578,0,0,1,1.577-1.577h5.258a1.578,1.578,0,0,1,1.577,1.577Zm0-12.62a1.578,1.578,0,0,1-1.577,1.577H35.231a1.578,1.578,0,0,1-1.577-1.577V9.991a1.578,1.578,0,0,1,1.577-1.577h5.258a1.578,1.578,0,0,1,1.577,1.577Z"/></svg>