<svg xmlns="http://www.w3.org/2000/svg" xmlns:xlink="http://www.w3.org/1999/xlink" width="1920" height="2390" viewBox="0 0 1920 2390">
  <defs>
    <filter id="Rectangle_118" x="1474.5" y="30.5" width="392" height="117" filterUnits="userSpaceOnUse">
      <feOffset dx="5" dy="5" input="SourceAlpha"/>
      <feGaussianBlur stdDeviation="7.5" result="blur"/>
      <feFlood flood-color="#001858"/>
      <feComposite operator="in" in2="blur"/>
      <feComposite in="SourceGraphic"/>
    </filter>
    <filter id="Ellipse_6" x="320.5" y="1682.5" width="83" height="83" filterUnits="userSpaceOnUse">
      <feOffset dx="5" dy="5" input="SourceAlpha"/>
      <feGaussianBlur stdDeviation="7.5" result="blur-2"/>
      <feFlood flood-color="#001858"/>
      <feComposite operator="in" in2="blur-2"/>
      <feComposite in="SourceGraphic"/>
    </filter>
    <filter id="Ellipse_13" x="247.5" y="327.5" width="63" height="63" filterUnits="userSpaceOnUse">
      <feOffset dx="5" dy="5" input="SourceAlpha"/>
      <feGaussianBlur stdDeviation="7.5" result="blur-3"/>
      <feFlood flood-color="#001858"/>
      <feComposite operator="in" in2="blur-3"/>
      <feComposite in="SourceGraphic"/>
    </filter>
    <filter id="Ellipse_14" x="247.5" y="452.5" width="63" height="63" filterUnits="userSpaceOnUse">
      <feOffset dx="5" dy="5" input="SourceAlpha"/>
      <feGaussianBlur stdDeviation="7.5" result="blur-4"/>
      <feFlood flood-color="#001858"/>
      <feComposite operator="in" in2="blur-4"/>
      <feComposite in="SourceGraphic"/>
    </filter>
    <filter id="Ellipse_15" x="247.5" y="584.5" width="63" height="63" filterUnits="userSpaceOnUse">
      <feOffset dx="5" dy="5" input="SourceAlpha"/>
      <feGaussianBlur stdDeviation="7.5" result="blur-5"/>
      <feFlood flood-color="#001858"/>
      <feComposite operator="in" in2="blur-5"/>
      <feComposite in="SourceGraphic"/>
    </filter>
    <filter id="Ellipse_16" x="247.5" y="712.5" width="63" height="63" filterUnits="userSpaceOnUse">
      <feOffset dx="5" dy="5" input="SourceAlpha"/>
      <feGaussianBlur stdDeviation="7.5" result="blur-6"/>
      <feFlood flood-color="#001858"/>
      <feComposite operator="in" in2="blur-6"/>
      <feComposite in="SourceGraphic"/>
    </filter>
    <filter id="Ellipse_8" x="320.5" y="1781.5" width="83" height="83" filterUnits="userSpaceOnUse">
      <feOffset dx="5" dy="5" input="SourceAlpha"/>
      <feGaussianBlur stdDeviation="7.5" result="blur-7"/>
      <feFlood flood-color="#001858"/>
      <feComposite operator="in" in2="blur-7"/>
      <feComposite in="SourceGraphic"/>
    </filter>
    <filter id="Ellipse_10" x="320.5" y="1880.5" width="83" height="83" filterUnits="userSpaceOnUse">
      <feOffset dx="5" dy="5" input="SourceAlpha"/>
      <feGaussianBlur stdDeviation="7.5" result="blur-8"/>
      <feFlood flood-color="#001858"/>
      <feComposite operator="in" in2="blur-8"/>
      <feComposite in="SourceGraphic"/>
    </filter>
    <filter id="Ellipse_19" x="1529.5" y="801.5" width="83" height="83" filterUnits="userSpaceOnUse">
      <feOffset dx="5" dy="5" input="SourceAlpha"/>
      <feGaussianBlur stdDeviation="7.5" result="blur-9"/>
      <feFlood flood-color="#001858"/>
      <feComposite operator="in" in2="blur-9"/>
      <feComposite in="SourceGraphic"/>
    </filter>
    <linearGradient id="linear-gradient" y1="0.5" x2="1" y2="0.5" gradientUnits="objectBoundingBox">
      <stop offset="0" stop-color="#b08926"/>
      <stop offset="0.309" stop-color="#facf05"/>
      <stop offset="0.485" stop-color="#facf05"/>
      <stop offset="1" stop-color="#b08926"/>
    </linearGradient>
    <linearGradient id="linear-gradient-35" x1="0.182" y1="0.182" x2="1.043" y2="1.043" xlink:href="#linear-gradient"/>
    <linearGradient id="linear-gradient-36" x1="0.113" y1="0.093" x2="1.161" y2="0.972" xlink:href="#linear-gradient"/>
    <filter id="Rectangle_145" x="771.5" y="1193.5" width="277" height="117" filterUnits="userSpaceOnUse">
      <feOffset dx="5" dy="5" input="SourceAlpha"/>
      <feGaussianBlur stdDeviation="7.5" result="blur-10"/>
      <feFlood flood-color="#8a1f00"/>
      <feComposite operator="in" in2="blur-10"/>
      <feComposite in="SourceGraphic"/>
    </filter>
    <clipPath id="clip-path">
      <rect id="Rectangle_146" data-name="Rectangle 146" width="556" height="448" transform="translate(54 795.361)" fill="#fff" stroke="#707070" stroke-width="1"/>
    </clipPath>
    <clipPath id="clip-Web_1920_1">
      <rect width="1920" height="2390"/>
    </clipPath>
  </defs>
  <g id="Web_1920_1" data-name="Web 1920 – 1" clip-path="url(#clip-Web_1920_1)">
    <rect width="1920" height="2390" fill="#fff"/>
    <rect id="Rectangle_117" data-name="Rectangle 117" width="1920" height="1081" fill="#01288f"/>
    <text id="Products" transform="translate(312 92)" fill="#fff" font-size="22" font-family="SegoeUI, Segoe UI"><tspan x="0" y="0">Products</tspan></text>
    <text id="This_badge_is_given_to_individuals_who_have_shown_exemplary_performance_to_guide_the_fellow_interns." data-name="This badge is given to individuals who have shown exemplary performance to guide the fellow interns." transform="translate(452 1728)" fill="#01288f" font-size="22" font-family="SegoeUI, Segoe UI"><tspan x="0" y="0">This badge is given to individuals who have shown exemplary performance to guide the fellow interns.</tspan></text>
    <text id="The_individuals_who_have_completed_the_internship_period_are_eligible_for_this_badge." data-name="The individuals who have completed the internship period are eligible for this badge." transform="translate(452 1827)" fill="#01288f" font-size="22" font-family="SegoeUI, Segoe UI"><tspan x="0" y="0">The individuals who have completed the internship period are eligible for this badge.</tspan></text>
    <text id="Skills:" transform="translate(452 1926)" fill="#01288f" font-size="22" font-family="SegoeUI, Segoe UI"><tspan x="0" y="0">Skills:</tspan></text>
    <text id="Earning_Criteria_for:" data-name="Earning Criteria for:" transform="translate(312 1472)" fill="#01288f" font-size="22" font-family="SegoeUI, Segoe UI"><tspan x="0" y="0">Earning Criteria for:</tspan></text>
    <g id="Group_4466" data-name="Group 4466" transform="translate(0 -1)">
      <text id="Issued_to" data-name="Issued to" transform="translate(313 360)" fill="#fff" font-size="22" font-family="SegoeUI, Segoe UI"><tspan x="0" y="0">Issued to</tspan></text>
      <text id="Jatin_Singhania" data-name="Jatin Singhania" transform="translate(312 409)" fill="#fff" font-size="40" font-family="SegoeUI-Bold, Segoe UI" font-weight="700"><tspan x="0" y="0">Jatin Singhania</tspan></text>
    </g>
    <g id="Group_4465" data-name="Group 4465" transform="translate(259 129)">
      <text id="Date" transform="translate(53 360)" fill="#fff" font-size="22" font-family="SegoeUI, Segoe UI"><tspan x="0" y="0">Date</tspan></text>
      <text id="_13th_July_2021" data-name="13th July 2021" transform="translate(53 409)" fill="#fff" font-size="40" font-family="SegoeUI-Bold, Segoe UI" font-weight="700"><tspan x="0" y="0">13th July 2021</tspan></text>
    </g>
    <text id="Golden_Hand_Badge" data-name="Golden Hand Badge" transform="translate(312 1597)" fill="#01288f" font-size="60" font-family="SegoeUI-Bold, Segoe UI" font-weight="700"><tspan x="0" y="0">Golden Hand Badge</tspan></text>
    <text id="Solutions" transform="translate(451 92)" fill="#fff" font-size="22" font-family="SegoeUI, Segoe UI"><tspan x="0" y="0">Solutions</tspan></text>
    <text id="Developers" transform="translate(596 92)" fill="#fff" font-size="22" font-family="SegoeUI, Segoe UI"><tspan x="0" y="0">Developers</tspan></text>
    <text id="Blog" transform="translate(759 92)" fill="#fff" font-size="22" font-family="SegoeUI, Segoe UI"><tspan x="0" y="0">Blog</tspan></text>
    <text id="Verification" transform="translate(857 92)" fill="#fff" font-size="22" font-family="SegoeUI, Segoe UI"><tspan x="0" y="0">Verification</tspan></text>
    <text id="About_True_Certificates" data-name="About True Certificates" transform="translate(1457 2236)" fill="#01288f" font-size="22" font-family="SegoeUI, Segoe UI"><tspan x="0" y="0">About True Certificates</tspan></text>
    <text id="Connect" transform="translate(1758 2236)" fill="#01288f" font-size="22" font-family="SegoeUI, Segoe UI"><tspan x="0" y="0">Connect</tspan></text>
    <g transform="matrix(1, 0, 0, 1, 0, 0)" filter="url(#Rectangle_118)">
      <rect id="Rectangle_118-2" data-name="Rectangle 118" width="347" height="72" rx="36" transform="translate(1492 48)" fill="#ff3a00"/>
    </g>
    <text id="What_is_True_Certificates_" data-name="What is True Certificates?" transform="translate(1544 93)" fill="#fff" font-size="22" font-family="SegoeUI, Segoe UI"><tspan x="0" y="0">What is True Certificates?</tspan></text>
    <rect id="Rectangle_136" data-name="Rectangle 136" width="64" height="64" rx="32" transform="translate(325 1687)" fill="#0834aa"/>
    <rect id="Rectangle_139" data-name="Rectangle 139" width="64" height="64" rx="32" transform="translate(325 1786)" fill="#0834aa"/>
    <rect id="Rectangle_140" data-name="Rectangle 140" width="64" height="64" rx="32" transform="translate(325 1885)" fill="#0834aa"/>
    <g transform="matrix(1, 0, 0, 1, 0, 0)" filter="url(#Ellipse_6)">
      <circle id="Ellipse_6-2" data-name="Ellipse 6" cx="19" cy="19" r="19" transform="translate(338 1700)" fill="#ff3a00"/>
    </g>
    <g transform="matrix(1, 0, 0, 1, 0, 0)" filter="url(#Ellipse_13)">
      <circle id="Ellipse_13-2" data-name="Ellipse 13" cx="9" cy="9" r="9" transform="translate(265 345)" fill="#ff3a00"/>
    </g>
    <g transform="matrix(1, 0, 0, 1, 0, 0)" filter="url(#Ellipse_14)">
      <circle id="Ellipse_14-2" data-name="Ellipse 14" cx="9" cy="9" r="9" transform="translate(265 470)" fill="#ff3a00"/>
    </g>
    <g transform="matrix(1, 0, 0, 1, 0, 0)" filter="url(#Ellipse_15)">
      <circle id="Ellipse_15-2" data-name="Ellipse 15" cx="9" cy="9" r="9" transform="translate(265 602)" fill="#ff3a00"/>
    </g>
    <g transform="matrix(1, 0, 0, 1, 0, 0)" filter="url(#Ellipse_16)">
      <circle id="Ellipse_16-2" data-name="Ellipse 16" cx="9" cy="9" r="9" transform="translate(265 730)" fill="#ff3a00"/>
    </g>
    <g transform="matrix(1, 0, 0, 1, 0, 0)" filter="url(#Ellipse_8)">
      <circle id="Ellipse_8-2" data-name="Ellipse 8" cx="19" cy="19" r="19" transform="translate(338 1799)" fill="#ff3a00"/>
    </g>
    <g transform="matrix(1, 0, 0, 1, 0, 0)" filter="url(#Ellipse_10)">
      <circle id="Ellipse_10-2" data-name="Ellipse 10" cx="19" cy="19" r="19" transform="translate(338 1898)" fill="#ff3a00"/>
    </g>
    <rect id="Rectangle_136-2" data-name="Rectangle 136" width="199" height="68" rx="24" transform="translate(452 1979)" fill="#0834aa"/>
    <rect id="Rectangle_141" data-name="Rectangle 141" width="302" height="68" rx="24" transform="translate(703 1979)" fill="#0834aa"/>
    <circle id="Ellipse_7" data-name="Ellipse 7" cx="8" cy="8" r="8" transform="translate(349 1711)" fill="#fff"/>
    <circle id="Ellipse_9" data-name="Ellipse 9" cx="8" cy="8" r="8" transform="translate(349 1810)" fill="#fff"/>
    <circle id="Ellipse_11" data-name="Ellipse 11" cx="8" cy="8" r="8" transform="translate(349 1909)" fill="#fff"/>
    <text id="Leadership" transform="translate(499 2022)" fill="#fff" font-size="22" font-family="SegoeUI, Segoe UI"><tspan x="0" y="0">Leadership</tspan></text>
    <g id="Group_4174" data-name="Group 4174" transform="translate(-367 -590)">
      <rect id="Rectangle_143" data-name="Rectangle 143" width="199" height="68" rx="24" transform="translate(1424 2569)" fill="#0834aa"/>
      <text id="Hardwork" transform="translate(1476 2612)" fill="#fff" font-size="22" font-family="SegoeUI, Segoe UI"><tspan x="0" y="0">Hardwork</tspan></text>
    </g>
    <text id="Product_Development" data-name="Product Development" transform="translate(748 2022)" fill="#fff" font-size="22" font-family="SegoeUI, Segoe UI"><tspan x="0" y="0">Product Development</tspan></text>
    <g id="Group_4463" data-name="Group 4463" transform="translate(7.854 -147.262)">
      <path id="Path_387" data-name="Path 387" d="M825.906,656.686c-1.877,1.049-3.665.652-5.5-.208-9.1-4.264-14.612-11.1-15.607-21.317a79.119,79.119,0,0,1,.02-14.975,2.123,2.123,0,0,1,1.693-2.115q7.884-2.237,15.747-4.545a3.942,3.942,0,0,1,2.3.029c5.194,1.518,10.388,3.033,15.6,4.5a2.146,2.146,0,0,1,1.766,2.064c.691,6.987.713,13.936-1.106,20.789a17.538,17.538,0,0,1-2.827,6.043c-.315-.275-.631-.549-.944-.826.137-.16.272-.319.409-.476,4.207-4.789,2.813-11.207-2.995-13.763a2.317,2.317,0,0,1-1.037-.656,10.315,10.315,0,0,0-.108-4.171,24.8,24.8,0,0,0-4.321-4.331c-4.453-.394-8.914-.141-13.372-.173-.853-.006-1.094.61-1.092,1.395q.02,10.214.011,20.429c0,1.03.441,1.516,1.511,1.5,2.754-.052,5.509-.054,8.263-.076l1.272.177a72.782,72.782,0,0,0-4.068,7.6c-.014.119-.028.238-.043.356l.332-.122a3.032,3.032,0,0,0,.991-.358c2.36-1.324,2.378-1.313,2.878,1.26C825.8,655.356,825.831,656.025,825.906,656.686Z" transform="translate(-653.134 -412.368)" fill="#fff"/>
      <path id="Path_388" data-name="Path 388" d="M730.1,659.822a1.783,1.783,0,0,1-.38.138c-4.531.275-4.527.273-5.571-4.159-.524-2.223-1.093-4.438-1.59-6.667-.471-2.113-2.09-.922-3.178-1.078-1.155-.166-.729.9-.736,1.463-.04,3.074-.049,6.149,0,9.223.014.9-.151,1.257-1.175,1.264-3.65.027-3.649.074-3.649-3.6,0-9.067.028-18.134-.033-27.2-.008-1.265.364-1.55,1.553-1.506,2.6.095,5.211-.015,7.814.064,3.579.109,5.442,1.757,6.024,5.31a30.338,30.338,0,0,1-.03,9.646,5.409,5.409,0,0,1-1.986,3.77c-.663.481-.4.94-.25,1.488Q728.522,653.9,730.1,659.822Zm-11.475-21.875V640.6c0,3.254,0,3.254,3.2,3.1,1.734-.083,2.373-.663,2.709-2.4a21.88,21.88,0,0,0,.2-4.359c-.032-4.386-.83-5.1-5.158-4.838-.758.046-.983.274-.964,1C718.657,634.719,718.629,636.333,718.628,637.946Z" transform="translate(-621.55 -417.36)" fill="#fff"/>
      <path id="Path_389" data-name="Path 389" d="M754.64,640.847c0-3.907.051-7.814-.031-11.718-.025-1.206.345-1.469,1.491-1.451,3.437.054,3.474,0,3.43,3.5-.091,7.289.243,14.583-.289,21.865-.015.208-.02.416-.037.624-.4,4.763-2.284,6.519-7.091,6.617-.364.007-.729.008-1.093,0-4.993-.089-6.827-1.821-7.163-6.84-.555-8.273-.154-16.557-.285-24.835-.01-.646.141-1.008.858-.9a.831.831,0,0,0,.156,0c3.763-.164,3.725-.164,3.761,3.627.067,7.236-.244,14.477.212,21.71.143,2.256.889,2.917,3.144,2.895,1.974-.02,2.779-.738,2.82-2.907.076-4.06.022-8.122.022-12.184Z" transform="translate(-631.919 -417.345)" fill="#fff"/>
      <path id="Path_390" data-name="Path 390" d="M774.415,643.764c0-4.9.033-9.791-.026-14.685-.014-1.1.3-1.4,1.391-1.38,3.384.068,6.77.049,10.154.008.871-.01,1.274.1,1.275,1.149,0,3.271.058,3.26-3.194,3.276-1.5.007-3.525-.512-4.362.25-.969.882-.228,2.936-.294,4.479-.049,1.144.048,2.3-.027,3.436-.062.927.169,1.293,1.182,1.234,1.609-.093,3.228,0,4.842-.037.679-.018.856.2.9.882.207,3.514.23,3.513-3.252,3.513-3.649,0-3.649,0-3.649,3.72,0,1.562.055,3.127-.02,4.686-.047.977.181,1.371,1.257,1.317,1.87-.094,3.749,0,5.623-.04.727-.017.957.182.99.947.151,3.458.18,3.457-3.314,3.457-2.76,0-5.521-.042-8.28.023-.979.023-1.221-.285-1.212-1.236C774.439,653.764,774.415,648.764,774.415,643.764Z" transform="translate(-642.661 -417.36)" fill="#fff"/>
      <path id="Path_391" data-name="Path 391" d="M691.362,646.036c0-4.115-.064-8.232.036-12.345.033-1.355-.4-1.774-1.649-1.557a2.809,2.809,0,0,1-.469,0c-3.567,0-3.544,0-3.256-3.544.056-.692.293-.876.936-.873,4.584.018,9.168.009,13.751.01.419,0,.867-.046.86.6-.011,1.093-.006,2.188-.006,3.281,0,.409-.253.523-.6.526-.208,0-.417-.008-.625.006-1.332.093-3.158-.59-3.863.3-.667.84-.213,2.586-.214,3.933-.008,7.4-.033,14.793.026,22.19.01,1.185-.307,1.474-1.468,1.454-3.456-.059-3.458,0-3.458-3.51Z" transform="translate(-611.838 -417.368)" fill="#fff"/>
      <path id="Path_392" data-name="Path 392" d="M730.815,706.359c-3.222.4-3.215.4-3.918-2.519-.364-1.512-.831-3-1.118-4.529-.24-1.284-1.149-.721-1.823-.8-.932-.113-.78.58-.781,1.133,0,1.977-.05,3.955.014,5.931.048,1.452-.994.878-1.614.894-.637.016-1.6.5-1.592-.927.046-6.555.02-13.111.02-19.666,0-.473-.055-.972.674-.936,2.178.107,4.369-.162,6.539.233a3.308,3.308,0,0,1,2.839,2.735,18.4,18.4,0,0,1,.006,7.582c-.071.352-.136.821-.378,1-1.6,1.2-.824,2.631-.451,4.024C729.754,702.458,730.284,704.4,730.815,706.359Zm-7.64-14.561c0,.985-.006,1.969,0,2.954,0,.293-.076.618.254.824,1.267.789,3.58-.262,3.718-1.774a23.016,23.016,0,0,0,.018-3.879c-.134-1.721-.772-2.025-2.972-1.988-1.765.029-.841,1.282-1,2A8.9,8.9,0,0,0,723.175,691.8Z" transform="translate(-623.709 -437.299)" fill="#fff"/>
      <path id="Path_393" data-name="Path 393" d="M816.108,706.427c-1.285.33-1.773-.24-1.851-1.389-.042-.618-.277-1.226-.295-1.842-.039-1.4-.6-1.938-2.086-1.856-2.486.138-2.492.036-2.917,2.9-.351,2.358-.35,2.285-2.587,2.27-1.017-.007-.961-.487-.841-1.146q1.462-8.038,2.932-16.073c.065-.358.122-.716.179-1.075.533-3.333.534-3.273,3.956-3.337,1.086-.02,1.4.393,1.562,1.33.95,5.416,1.939,10.826,2.911,16.239a15.637,15.637,0,0,0,.406,2.294C817.975,706.208,817.67,706.867,816.108,706.427Zm-4.417-17.62-.237-.027c-.419,2.48-.869,4.955-1.248,7.441-.344,2.26-.31,2.239,2.016,2.184.767-.018,1.059-.087.877-1.027C812.55,694.538,812.15,691.667,811.691,688.808Z" transform="translate(-653.488 -437.281)" fill="#fff"/>
      <path id="Path_394" data-name="Path 394" d="M703.273,695.727c0-3.228.027-6.457-.018-9.685-.012-.863.21-1.174,1.117-1.148,2.133.063,4.272.082,6.4,0,1.385-.055.974.877,1,1.563.029.74.257,1.686-1.061,1.5a.692.692,0,0,0-.156,0c-1.279.117-3.377-.54-3.674.264-.594,1.6-.231,3.565-.248,5.379,0,.5.371.551.757.553q.937,0,1.875.005c1.852,0,2.294.6,1.874,2.418-.091.392-.251.525-.61.519-.209,0-.417,0-.625,0-3.3.057-3.3.057-3.3,3.309,0,3.17,0,3.147,3.323,3.19.785.01,1.894-.542,1.9,1.156.008,1.426-.369,1.872-1.8,1.765a36.061,36.061,0,0,0-5.307,0c-1.315.1-1.514-.426-1.488-1.573C703.32,701.873,703.273,698.8,703.273,695.727Z" transform="translate(-617.878 -437.284)" fill="#fff"/>
      <path id="Path_395" data-name="Path 395" d="M862.132,703.626c3.638.164,4.107-.288,4-3.864-.068-2.254-.265-2.487-2.527-2.988-3.751-.831-3.923-1.026-4.189-4.734-.443-6.174,2.008-8.31,8.125-7.23,1.587.281,1.092,1.346,1.116,2.218.033,1.2-.881.409-1.349.556a1.987,1.987,0,0,1-.621,0c-3.809-.106-4.309.459-4.053,4.283a1.761,1.761,0,0,0,1.648,1.885c.1.016.2.041.306.063,4.107.873,4.7,1.574,4.7,5.733a18.747,18.747,0,0,1-.2,2.949c-.479,3.04-1.732,4.109-4.833,4.12a29.221,29.221,0,0,1-2.951-.246c-1.59-.158-2-.788-1.661-2.336.115-.519.4-.523.773-.5C860.99,703.558,861.561,703.594,862.132,703.626Z" transform="translate(-672.264 -437.162)" fill="#fff"/>
      <path id="Path_396" data-name="Path 396" d="M843.869,695.707c0-3.179.044-6.358-.025-9.535-.023-1.047.306-1.32,1.312-1.283,2.029.074,4.069.113,6.094-.01,1.351-.081,1.091.739,1.085,1.484-.007.779.309,1.808-1.126,1.585a1.713,1.713,0,0,0-.469,0c-1.2.145-3.155-.573-3.473.373-.551,1.636-.169,3.592-.143,5.414.006.4.4.419.713.424.677.01,1.355.007,2.032.008,1.817,0,2.272.641,1.859,2.422-.151.65-.57.467-.942.494-1.182.085-2.741-.5-3.454.242-.774.809-.221,2.377-.24,3.611-.04,2.638-.012,2.638,2.6,2.638h.938a1.7,1.7,0,0,1,1.7,2.549c-.166.4-.461.348-.753.349-2.292.006-4.586-.032-6.877.021-.912.021-.833-.505-.833-1.095Q843.877,700.551,843.869,695.707Z" transform="translate(-666.856 -437.278)" fill="#fff"/>
      <path id="Path_397" data-name="Path 397" d="M766.26,695.68c0-3.127.043-6.255-.023-9.381-.023-1.05.193-1.477,1.347-1.417,1.924.1,3.859.095,5.783.005,1.375-.064,1,.855,1.015,1.552.018.731.284,1.606-1.052,1.537-1.179-.061-2.745-.527-3.459.2-.786.8-.227,2.373-.246,3.607-.041,2.779-.01,2.854,2.841,2.769,1.246-.038,1.422.405,1.443,1.5.021,1.172-.3,1.507-1.482,1.477-2.813-.07-2.815-.006-2.815,2.833,0,1.72-.033,3.441.015,5.159.022.753-.231.952-.972.978-2.4.083-2.4.117-2.4-2.22Z" transform="translate(-639.82 -437.279)" fill="#fff"/>
      <path id="Path_398" data-name="Path 398" d="M791.062,695.752a57.2,57.2,0,0,1,.325-6.73c.619-4.524,3.631-4.776,7.31-4.093,1.126.209.456,1.417.554,2.165.1.794-.543.537-.966.534-.364,0-.728-.033-1.091-.035-2.026-.012-2.534.353-2.738,2.339A62.018,62.018,0,0,0,794.406,701c.181,2.369.8,2.753,3.229,2.713.568-.01,1.641-.847,1.707.688.051,1.193-.007,1.99-1.59,2.18-4.083.49-5.875-.766-6.428-4.786A54.324,54.324,0,0,1,791.062,695.752Z" transform="translate(-648.469 -437.198)" fill="#fff"/>
      <path id="Path_399" data-name="Path 399" d="M687.309,695.707a49.691,49.691,0,0,1,.4-7.219,5.141,5.141,0,0,1,7.337-3.693c1.005.5.4,1.494.455,2.251.061.82-.643.411-1.029.435-.517.032-1.04-.007-1.561-.02a1.837,1.837,0,0,0-2.125,1.789,57.512,57.512,0,0,0,.009,12.455c.181,1.593.91,1.931,3.015,1.84,1.842-.08,2.018.13,1.776,1.894a.8.8,0,0,1-.74.82c-3.912.739-6.855.078-7.285-4.528C687.364,699.652,687.4,697.573,687.309,695.707Z" transform="translate(-612.325 -437.063)" fill="#fff"/>
      <path id="Path_400" data-name="Path 400" d="M828.783,697.171c0-2.655-.037-5.31.02-7.963.02-.93-.2-1.389-1.2-1.236a5.1,5.1,0,0,1-.779.006,1.851,1.851,0,0,1-1.622-2.768c.233-.423.63-.286.967-.287,2.758-.011,5.519.055,8.274-.033,1.361-.044,1.047.824,1.026,1.532-.02.676.4,1.573-.983,1.587-2.487.024-2.487.1-2.487,2.667,0,4.788-.059,9.578.038,14.365.027,1.342-.489,1.461-1.591,1.476-1.17.016-1.776-.1-1.7-1.542C828.881,702.381,828.783,699.773,828.783,697.171Z" transform="translate(-660.278 -437.283)" fill="#fff"/>
      <path id="Path_401" data-name="Path 401" d="M741.651,697.166c0-2.657-.039-5.316.021-7.973.021-.93-.186-1.387-1.191-1.227-.3.048-.633-.04-.936.016-1.35.249-1.482-.482-1.493-1.588-.011-1.088.166-1.57,1.426-1.516,2.549.111,5.109.109,7.658,0,1.286-.054,1.314.589,1.249,1.507-.055.78.291,1.652-1.145,1.623-2.425-.049-2.427.046-2.427,2.428,0,4.9-.074,9.8.044,14.694.037,1.53-.735,1.335-1.7,1.365-1.009.031-1.611-.016-1.545-1.359C741.742,702.486,741.651,699.824,741.651,697.166Z" transform="translate(-630.002 -437.278)" fill="#fff"/>
      <path id="Path_402" data-name="Path 402" d="M759.893,695.684c0,3.228-.063,6.458.026,9.684.045,1.61-1.034,1.052-1.785,1.1-.8.055-1.591.26-1.573-1.151q.121-9.606,0-19.213c-.02-1.532.889-1.168,1.7-1.187.861-.021,1.722-.252,1.666,1.237C759.809,689.328,759.893,692.508,759.893,695.684Z" transform="translate(-636.45 -437.285)" fill="#fff"/>
      <path id="Path_403" data-name="Path 403" d="M785.121,695.847c0,3.173-.074,6.348.034,9.518.049,1.454-.839,1.122-1.6,1.106-.732-.016-1.642.394-1.626-1.075q.1-9.673,0-19.348c-.017-1.432.819-1.137,1.6-1.123.752.014,1.668-.362,1.626,1.092C785.058,689.291,785.121,692.57,785.121,695.847Z" transform="translate(-645.287 -437.284)" fill="#fff"/>
      <path id="Path_404" data-name="Path 404" d="M851.866,663.632l.945.824c.854,2.429,2.376,4.541,3.536,7.245-1.168-.579-2.044-.973-2.88-1.437-.779-.432-1.2-.408-1.328.622-.132,1.075-.412,2.132-.666,3.383-1.371-1.508-1.832-3.422-3.041-4.846l-.3-.641-.029-.059c-.169-1.073-1.362-1.8-1.033-3.042A7.84,7.84,0,0,0,851.866,663.632Z" transform="translate(-667.96 -429.878)" fill="#e1b730"/>
      <path id="Path_405" data-name="Path 405" d="M835.027,674.115c-.076-.66-.108-1.329-.233-1.98-.5-2.573-.517-2.584-2.878-1.26a3.03,3.03,0,0,1-.991.358l-.29-.235a72.9,72.9,0,0,1,4.069-7.6,7.731,7.731,0,0,0,5.085,2.209c.135.689-.315,1.183-.59,1.729-1.071,2.126-2.435,4.1-3.333,6.316C835.614,673.857,835.5,674.306,835.027,674.115Z" transform="translate(-662.255 -429.797)" fill="#e1b730"/>
      <path id="Path_406" data-name="Path 406" d="M838.662,674.83c.9-2.218,2.262-4.19,3.333-6.316.275-.545.725-1.039.592-1.729l1.576-.008c-.331,1.242.862,1.969,1.031,3.042-.564.013-1.31-.71-1.652.1-.39.919-1.308,1.652-1.11,2.8A12.965,12.965,0,0,1,838.662,674.83Z" transform="translate(-665.051 -430.974)" fill="#1a2d8b"/>
      <path id="Path_407" data-name="Path 407" d="M844.432,674.189c-.2-1.15.719-1.883,1.11-2.8.342-.806,1.088-.083,1.652-.1l.029.059.041.717A10.357,10.357,0,0,1,844.432,674.189Z" transform="translate(-667.052 -432.447)" fill="#1d308d"/>
      <path id="Path_408" data-name="Path 408" d="M848.771,672.251l-.041-.717.3.641A.726.726,0,0,1,848.771,672.251Z" transform="translate(-668.559 -432.631)" fill="#1a2d8b"/>
      <path id="Path_409" data-name="Path 409" d="M838.7,631.935a10.324,10.324,0,0,1,.108,4.17c-3.695-.145-7.359.508-11.063.378-1.505-.053-3.138-.581-4.578.416,1.439.862,3.008.208,4.509.376,1.3.145,2.632-.152,3.968.169-1.187,1.881-2.675,2.835-4.872,2.477a15.335,15.335,0,0,0-2.653-.016c-.409.007-.825.042-.935.687a18.321,18.321,0,0,0,3.879.149c1.7.043,2.084.708,1.25,2.184-.379.672-1,.63-1.626.668a14.213,14.213,0,0,0-3.511.187c.151.209.2.348.261.35,1.09.038,2.184.125,3.27.068,1.32-.07,1.344.727,1.4,1.7.068,1.093-.523,1.183-1.348,1.157-.936-.028-1.875-.01-2.813,0-.3,0-.723-.055-.719.373,0,.355.382.454.7.461.729.016,1.458.016,2.188.016,2.659,0,2.822.127,3.577,2.768-2.754.021-5.51.024-8.263.076-1.071.02-1.512-.466-1.511-1.5q.006-10.215-.011-20.429c0-.785.239-1.4,1.092-1.394,4.458.032,8.919-.221,13.371.173C834.122,632.161,834.122,632.161,838.7,631.935Zm-6.783,1.52-.009-.3h-8.64l.007.3Z" transform="translate(-658.519 -417.249)" fill="#dedfdf"/>
      <path id="Path_410" data-name="Path 410" d="M831.435,655.327c-.756-2.641-.919-2.766-3.577-2.768-.73,0-1.459,0-2.188-.016-.323-.007-.7-.106-.7-.461,0-.427.422-.369.719-.373.938-.012,1.877-.03,2.813,0,.826.025,1.417-.065,1.348-1.157-.061-.972-.085-1.769-1.4-1.7-1.086.057-2.18-.03-3.27-.068-.057,0-.109-.141-.261-.35a14.208,14.208,0,0,1,3.511-.187c.624-.038,1.247,0,1.626-.668.833-1.477.446-2.141-1.25-2.184a18.316,18.316,0,0,1-3.879-.149c.109-.645.525-.68.935-.687a15.335,15.335,0,0,1,2.653.016c2.2.358,3.685-.6,4.872-2.477-1.336-.321-2.67-.023-3.968-.169-1.5-.168-3.069.486-4.509-.376,1.441-1,3.073-.469,4.578-.416,3.7.13,7.369-.523,11.063-.378a2.307,2.307,0,0,0,1.037.657c5.808,2.556,7.2,8.974,2.995,13.763-.137.156-.271.315-.409.476a7.842,7.842,0,0,1-4.8,2.05l-1.574.009a7.731,7.731,0,0,1-5.086-2.209Zm5.227-5.514c-.084-.414.329-.981-.31-1.219-.476-.177-.757.222-1.047.506a7.331,7.331,0,0,0-1.067,1.125,2.394,2.394,0,0,0,.182,3.136,2.161,2.161,0,0,0,2.949.459,11.857,11.857,0,0,0,1.831-1.662.552.552,0,0,0,.06-.828c-.33-.363-.644-.209-.943.054-.5.444-.977.929-1.515,1.324a1,1,0,0,1-1.4-.19,1.09,1.09,0,0,1-.18-1.423,1.871,1.871,0,0,1,1.14-.985c.36,1.516.642,1.624,1.7.621.6-.571,1.192-1.161,1.765-1.762.35-.367.858-.643.889-1.228.042-.777-.911-.464-1.207-.989.688-.729,1.335-1.613,2.344-.7.949.86.151,1.575-.452,2.232-.246.268-.508.52-.748.793a.529.529,0,0,0-.055.709.507.507,0,0,0,.678.207,4.417,4.417,0,0,0,2.184-2.532,2.366,2.366,0,0,0-.868-2.514c-1.08-.955-2.545-.643-3.944.8-1.118,1.156-1.058,1.382.6,1.808C838.445,648.443,837.925,649.528,836.662,649.813Z" transform="translate(-660.257 -421.903)" fill="#70bbf0"/>
      <path id="Path_411" data-name="Path 411" d="M846.382,632.054c-4.573.226-4.573.226-4.321-4.331A24.8,24.8,0,0,1,846.382,632.054Z" transform="translate(-666.205 -417.369)" fill="#70bbf0"/>
      <path id="Path_412" data-name="Path 412" d="M830.9,675.294l-.332.122c.015-.119.029-.238.043-.356Z" transform="translate(-662.233 -433.859)" fill="#e1b730"/>
      <path id="Path_413" data-name="Path 413" d="M833.706,636.544h-8.641l-.007-.3h8.64Z" transform="translate(-660.312 -420.339)" fill="#70bbf0"/>
      <path id="Path_414" data-name="Path 414" d="M842.782,651.772c1.263-.285,1.783-1.37,2.589-2.252-1.656-.425-1.716-.652-.6-1.808,1.4-1.447,2.864-1.759,3.944-.8a2.365,2.365,0,0,1,.868,2.514,4.417,4.417,0,0,1-2.184,2.532.507.507,0,0,1-.678-.207.529.529,0,0,1,.055-.709c.24-.273.5-.525.748-.793.6-.657,1.4-1.372.452-2.232-1.009-.914-1.656-.031-2.344.7.3.525,1.249.212,1.207.989-.031.585-.54.861-.89,1.228-.573.6-1.161,1.191-1.765,1.762-1.062,1-1.344.895-1.7-.621l-.014.014c.259.042.366-.068.326-.326Z" transform="translate(-666.378 -423.862)" fill="#fcfdfd"/>
      <path id="Path_415" data-name="Path 415" d="M841.089,654.288a1.871,1.871,0,0,0-1.14.985,1.091,1.091,0,0,0,.18,1.423,1,1,0,0,0,1.4.19c.538-.4,1.011-.88,1.515-1.324.3-.263.613-.417.943-.054a.552.552,0,0,1-.06.828A11.851,11.851,0,0,1,842.1,658a2.161,2.161,0,0,1-2.949-.459,2.394,2.394,0,0,1-.182-3.136,7.331,7.331,0,0,1,1.067-1.125c.29-.285.571-.684,1.047-.506.639.239.225.8.31,1.219l.012-.014a.292.292,0,0,0-.326.326Z" transform="translate(-664.984 -426.079)" fill="#fcfdfd"/>
      <path id="Path_416" data-name="Path 416" d="M842.469,654.97a.292.292,0,0,1,.326-.326C842.835,654.9,842.728,655.011,842.469,654.97Z" transform="translate(-666.378 -426.747)" fill="#70bbf0"/>
    </g>
    <text id="_31st_March_2025" data-name="31st March 2025" transform="translate(313 667)" fill="#fff" font-size="40" font-family="SegoeUI-Bold, Segoe UI" font-weight="700"><tspan x="0" y="0">31st March 2025</tspan></text>
    <text id="Date_of_Expiry" data-name="Date of Expiry" transform="translate(313 618)" fill="#fff" font-size="22" font-family="SegoeUI, Segoe UI"><tspan x="0" y="0">Date of Expiry</tspan></text>
    <g id="Group_4467" data-name="Group 4467" transform="translate(-446 386)">
      <text id="The_Sparks_Foundation" data-name="The Sparks Foundation" transform="translate(759 409)" fill="#fff" font-size="40" font-family="SegoeUI-Bold, Segoe UI" font-weight="700"><tspan x="0" y="0">The Sparks Foundation</tspan></text>
      <text id="Issuer" transform="translate(759 360)" fill="#fff" font-size="22" font-family="SegoeUI, Segoe UI"><tspan x="0" y="0">Issuer</tspan></text>
    </g>
    <g id="Group_4474" data-name="Group 4474">
      <rect id="Rectangle_136-3" data-name="Rectangle 136" width="579" height="619" rx="33" transform="translate(1028 260)" fill="#0834aa" opacity="0.3"/>
      <g transform="matrix(1, 0, 0, 1, 0, 0)" filter="url(#Ellipse_19)">
        <circle id="Ellipse_19-2" data-name="Ellipse 19" cx="19" cy="19" r="19" transform="translate(1547 819)" fill="#ff3a00"/>
      </g>
      <path id="Polygon_2" data-name="Polygon 2" d="M8,0l8,14H0Z" transform="translate(1575 830) rotate(90)" fill="#fff"/>
      <g id="Group_4473" data-name="Group 4473" transform="translate(940.4 204.463)">
        <text id="The_Golden_Hand" data-name="The Golden Hand" transform="translate(381.837 484.332)" fill="#fff" font-size="42" font-family="Poppins-Bold, Poppins" font-weight="700" letter-spacing="0.02em"><tspan x="-189.231" y="0">The Golden Hand</tspan></text>
        <text id="Presented_By_The_Sparks_Foundation_To_The_Top_Performer_of_the_month" data-name="Presented By The Sparks Foundation
To The Top Performer of the month" transform="translate(377.6 530.909)" fill="#fff" font-size="21" font-family="Poppins-Regular, Poppins" letter-spacing="0.03em"><tspan x="-200.172" y="0">Presented By The Sparks Foundation</tspan><tspan x="-191.572" y="35">To The Top Performer of the month</tspan></text>
        <g id="Group_4472" data-name="Group 4472" transform="translate(206.976 117.537)">
          <g id="Group_4470" data-name="Group 4470" transform="translate(0 62.621)">
            <g id="Group_4468" data-name="Group 4468">
              <path id="Path_417" data-name="Path 417" d="M418.28,418.973c-44.656-20-175.073-26.259-140.339-137.542.488-1.6.915-3.175,1.43-4.677.5-1.508.961-2.979,1.481-4.385a195.274,195.274,0,0,1,10.433-24.084c6.107-3.407,9.487-13.4,9.787-21.2a26.892,26.892,0,0,0-9.059,10.763c-2.04,4.41-2.165,7.532-1.434,9.929a195.905,195.905,0,0,0-11.112,24.289c-1.076,2.841-2.117,5.9-3.134,9.146-35.8,114.816,97.94,123.646,138.28,143.021.872.394,1.708.841,2.543,1.267,12.8,6.652,31.945,20.265,31.924,33.919a55.75,55.75,0,0,0,6.758-4C451.45,438.073,434.259,426.786,418.28,418.973Z" transform="translate(-246.692 -227.088)" fill="url(#linear-gradient)"/>
              <path id="Path_418" data-name="Path 418" d="M448.54,503.081c6.3,10.679,18.717,19.374,31.476,21.243,2.642-14.835-20.6-27.518-35.739-31.966A37.545,37.545,0,0,0,448.54,503.081Z" transform="translate(-321.217 -340.727)" fill="url(#linear-gradient)"/>
              <path id="Path_419" data-name="Path 419" d="M424.989,508.759a14.737,14.737,0,0,0-1.351-7.857c-2.91-6.327-11.49-15.647-27.9-23.1C396.636,493.133,409.241,508.076,424.989,508.759Z" transform="translate(-300.426 -334.49)" fill="url(#linear-gradient)"/>
              <path id="Path_420" data-name="Path 420" d="M374.946,490.661c2.687-11.208-10.884-25.576-20.094-32.791C351.121,473.033,360.768,488.441,374.946,490.661Z" transform="translate(-282.563 -325.952)" fill="url(#linear-gradient)"/>
              <path id="Path_421" data-name="Path 421" d="M330.373,465.121c4.66-8.821-1.885-25.157-6.484-33.617a27.62,27.62,0,0,0-2.584,3.733C315.229,445.889,318.842,460.1,330.373,465.121Z" transform="translate(-267.289 -314.657)" fill="url(#linear-gradient)"/>
              <path id="Path_422" data-name="Path 422" d="M304.222,396.636c-13.237,6.931-16.242,23.182-7.84,31.878C303.707,422.7,305.294,405.518,304.222,396.636Z" transform="translate(-255.847 -299.72)" fill="url(#linear-gradient)"/>
              <path id="Path_423" data-name="Path 423" d="M298.314,354.574c-14.378,2.854-22.674,16.2-19.031,26.9C288.9,379.282,296.09,364.157,298.314,354.574Z" transform="translate(-250.169 -281.701)" fill="url(#linear-gradient)"/>
              <path id="Path_424" data-name="Path 424" d="M289.02,314.515c-4.823,4.148-7.622,8.746-7.868,14.993,10.183,1.382,20.595-12.082,25.221-21.311A26.658,26.658,0,0,0,289.02,314.515Z" transform="translate(-251.337 -261.834)" fill="url(#linear-gradient)"/>
              <path id="Path_425" data-name="Path 425" d="M297.9,277.794c9.243,3.589,21.609-7.485,27.746-15.777C314.053,260,300.869,266.564,297.9,277.794Z" transform="translate(-258.51 -241.896)" fill="url(#linear-gradient)"/>
              <path id="Path_426" data-name="Path 426" d="M455.4,568.858a26.085,26.085,0,0,0-10.083,17.979c13.175-.366,31.573-8.147,29.609-21.258A20.759,20.759,0,0,0,455.4,568.858Z" transform="translate(-321.662 -371.619)" fill="url(#linear-gradient)"/>
              <path id="Path_427" data-name="Path 427" d="M388.7,559.267a25.369,25.369,0,0,0-3.9,8.8c16.043,1.33,34.3-5.657,31.423-19.343A26.737,26.737,0,0,0,388.7,559.267Z" transform="translate(-295.738 -364.597)" fill="url(#linear-gradient)"/>
              <path id="Path_428" data-name="Path 428" d="M323.349,541.9c20.641,5.99,34.589-2.65,33.856-13.068C343.575,524.122,328.848,530.441,323.349,541.9Z" transform="translate(-269.413 -355.677)" fill="url(#linear-gradient)"/>
              <path id="Path_429" data-name="Path 429" d="M302.664,497.769c-12.022-7.676-27.816-5.984-35.793,1.408C283.989,511.984,300.584,508.27,302.664,497.769Z" transform="translate(-245.219 -340.9)" fill="url(#linear-gradient)"/>
              <path id="Path_430" data-name="Path 430" d="M264.351,447.575c-7.7-11.254-21.772-16.258-31.819-13.492C240.581,449.022,256.926,457.846,264.351,447.575Z" transform="translate(-230.508 -315.442)" fill="url(#linear-gradient)"/>
              <path id="Path_431" data-name="Path 431" d="M248.926,385.4a10.928,10.928,0,0,0,2.761-1.012c-1.55-10.495-11.076-21.856-22.695-23.661C231.2,377.328,241.119,387.045,248.926,385.4Z" transform="translate(-228.992 -284.338)" fill="url(#linear-gradient)"/>
              <path id="Path_432" data-name="Path 432" d="M261.268,322.283c1.816-10.914-4.439-22.771-14.262-27.454C245.4,310.8,252.069,323.189,261.268,322.283Z" transform="translate(-236.607 -256.107)" fill="url(#linear-gradient)"/>
              <path id="Path_433" data-name="Path 433" d="M283.937,265.242c4.016-9.775-.137-22.066-8.129-28.289C272.37,248.927,274.553,263.692,283.937,265.242Z" transform="translate(-248.39 -231.314)" fill="url(#linear-gradient)"/>
            </g>
            <g id="Group_4469" data-name="Group 4469" transform="translate(146.406)">
              <path id="Path_434" data-name="Path 434" d="M522.679,418.973c44.656-20,175.073-26.259,140.339-137.542-.488-1.6-.915-3.175-1.431-4.677-.5-1.508-.961-2.979-1.481-4.385a195.187,195.187,0,0,0-10.434-24.084c-6.106-3.407-9.486-13.4-9.787-21.2a26.9,26.9,0,0,1,9.06,10.763c2.039,4.41,2.165,7.532,1.433,9.929a195.99,195.99,0,0,1,11.112,24.289c1.076,2.841,2.117,5.9,3.134,9.146,35.8,114.816-97.94,123.646-138.28,143.021-.872.394-1.708.841-2.543,1.267-12.8,6.652-31.945,20.265-31.924,33.919a55.748,55.748,0,0,1-6.758-4C489.509,438.073,506.7,426.786,522.679,418.973Z" transform="translate(-485.12 -227.088)" fill="url(#linear-gradient)"/>
              <path id="Path_435" data-name="Path 435" d="M604.52,503.081c-6.3,10.679-18.718,19.374-31.477,21.243-2.641-14.835,20.6-27.518,35.74-31.966A37.546,37.546,0,0,1,604.52,503.081Z" transform="translate(-522.697 -340.727)" fill="url(#linear-gradient)"/>
              <path id="Path_436" data-name="Path 436" d="M633.03,508.759a14.738,14.738,0,0,1,1.351-7.857c2.91-6.327,11.49-15.647,27.9-23.1C661.383,493.133,648.778,508.076,633.03,508.759Z" transform="translate(-548.447 -334.49)" fill="url(#linear-gradient)"/>
              <path id="Path_437" data-name="Path 437" d="M689.132,490.661c-2.687-11.208,10.884-25.576,20.093-32.791C712.957,473.033,703.31,488.441,689.132,490.661Z" transform="translate(-572.368 -325.952)" fill="url(#linear-gradient)"/>
              <path id="Path_438" data-name="Path 438" d="M739.447,465.121c-4.66-8.821,1.885-25.157,6.484-33.617a27.626,27.626,0,0,1,2.584,3.733C754.591,445.889,750.978,460.1,739.447,465.121Z" transform="translate(-593.385 -314.657)" fill="url(#linear-gradient)"/>
              <path id="Path_439" data-name="Path 439" d="M766.152,396.636c13.237,6.931,16.242,23.182,7.84,31.878C766.667,422.7,765.08,405.518,766.152,396.636Z" transform="translate(-605.381 -299.72)" fill="url(#linear-gradient)"/>
              <path id="Path_440" data-name="Path 440" d="M766.782,354.574c14.378,2.854,22.674,16.2,19.031,26.9C776.2,379.282,769.006,364.157,766.782,354.574Z" transform="translate(-605.78 -281.701)" fill="url(#linear-gradient)"/>
              <path id="Path_441" data-name="Path 441" d="M772.078,314.515c4.824,4.148,7.622,8.746,7.868,14.993-10.184,1.382-20.595-12.082-25.221-21.311A26.655,26.655,0,0,1,772.078,314.515Z" transform="translate(-600.615 -261.834)" fill="url(#linear-gradient)"/>
              <path id="Path_442" data-name="Path 442" d="M761.309,277.794c-9.242,3.589-21.609-7.485-27.746-15.777C745.154,260,758.337,266.564,761.309,277.794Z" transform="translate(-591.55 -241.896)" fill="url(#linear-gradient)"/>
              <path id="Path_443" data-name="Path 443" d="M602.3,568.858a26.085,26.085,0,0,1,10.083,17.979c-13.174-.366-31.573-8.147-29.609-21.258A20.759,20.759,0,0,1,602.3,568.858Z" transform="translate(-526.892 -371.619)" fill="url(#linear-gradient)"/>
              <path id="Path_444" data-name="Path 444" d="M667.525,559.267a25.358,25.358,0,0,1,3.9,8.8c-16.043,1.33-34.3-5.657-31.422-19.343A26.737,26.737,0,0,1,667.525,559.267Z" transform="translate(-551.34 -364.597)" fill="url(#linear-gradient)"/>
              <path id="Path_445" data-name="Path 445" d="M731.257,541.9c-20.641,5.99-34.589-2.65-33.856-13.068C711.031,524.122,725.758,530.441,731.257,541.9Z" transform="translate(-576.047 -355.677)" fill="url(#linear-gradient)"/>
              <path id="Path_446" data-name="Path 446" d="M750.512,497.769c12.022-7.676,27.816-5.984,35.793,1.408C769.187,511.984,752.592,508.27,750.512,497.769Z" transform="translate(-598.81 -340.9)" fill="url(#linear-gradient)"/>
              <path id="Path_447" data-name="Path 447" d="M791.8,447.575c7.7-11.254,21.772-16.258,31.819-13.492C815.573,449.022,799.227,457.846,791.8,447.575Z" transform="translate(-616.498 -315.442)" fill="url(#linear-gradient)"/>
              <path id="Path_448" data-name="Path 448" d="M814.066,385.4a10.928,10.928,0,0,1-2.761-1.012c1.55-10.495,11.076-21.856,22.695-23.661C831.79,377.328,821.873,387.045,814.066,385.4Z" transform="translate(-624.853 -284.338)" fill="url(#linear-gradient)"/>
              <path id="Path_449" data-name="Path 449" d="M807.629,322.283c-1.816-10.914,4.439-22.771,14.262-27.454C823.5,310.8,816.829,323.189,807.629,322.283Z" transform="translate(-623.144 -256.107)" fill="url(#linear-gradient)"/>
              <path id="Path_450" data-name="Path 450" d="M787.658,265.242c-4.016-9.775.137-22.066,8.129-28.289C799.224,248.927,797.041,263.692,787.658,265.242Z" transform="translate(-614.058 -231.314)" fill="url(#linear-gradient)"/>
            </g>
          </g>
          <path id="Path_451" data-name="Path 451" d="M553.363,231.559a53.337,53.337,0,0,1-68.325,51.182c.149-5.373,1.469-20.029,2.389-27.392a7,7,0,0,1,.795-.532,10.88,10.88,0,0,0,1.823-1.309c1.269-1.183,2.629-4.3,2.984-5.4.463-1.429,4.556-5.345,6-6.614.252-.217.457-.394.623-.532.595-.5.989-.829.835-1.543-.246-1.149-1.246-1.641-2.967-1.486-1.926.183-3.224,1.143-4.7,2.629-1.235,1.252-2.406,1.881-2.818,1.755-.137-.04-.211-.263-.252-.44a15.842,15.842,0,0,1-.126-6.728l.046-.28c.343-2.023,1.24-9.94,1.315-11.878a3.525,3.525,0,0,0-.846-2.887,1.835,1.835,0,0,0-1.589-.389c-1.589.286-1.841,2.692-2.058,4.819-.069.674-.166,1.721-.274,2.858-.2,2.166-.452,4.859-.589,5.745a1.141,1.141,0,0,1-.223.589.123.123,0,0,1-.017-.029c-.12-.274-.572-1.984-2.206-10.369-.063-.309-.12-.617-.177-.92-.423-2.309-.789-4.3-2.229-4.344a1.934,1.934,0,0,0-1.44.526,2.359,2.359,0,0,0-.686,1.686c-.011.606.217,2.767.509,5.533l.166,1.583c.08.783.234,1.926.394,3.138.12.886.269,2.012.377,2.95-.131-.252-.28-.537-.446-.869-.309-.635-.823-1.949-1.366-3.344-1.332-3.4-2.246-5.682-2.9-6.3a1.8,1.8,0,0,0-2.155-.377,2.115,2.115,0,0,0-.76,2.487c.269,1.115,1.023,3.561,1.755,5.928.44,1.418.869,2.812,1.178,3.864a11.661,11.661,0,0,1,.314,1.3c-.492-.743-1.166-1.783-1.795-2.749-2.1-3.235-3.515-5.4-3.973-5.865a1.782,1.782,0,0,0-2.109-.434,1.947,1.947,0,0,0-.846,2.246c.177.9,1.463,3.287,3.561,7.117a60.647,60.647,0,0,1,3,5.825,16.2,16.2,0,0,1,.354,2.9c.08,1.138.177,2.561.44,4.247a8.722,8.722,0,0,0,2.532,4.773c.149.16.326.354.412.469-.24,1.515-2.584,15.439-3.916,23.042a53.324,53.324,0,0,1,41.654-97.351c-.149,5.367-1.469,20.029-2.389,27.392a7.071,7.071,0,0,1-.795.526,11.571,11.571,0,0,0-1.823,1.309c-1.269,1.189-2.635,4.31-2.99,5.407-.446,1.389-4.3,5.122-5.99,6.614-.252.217-.457.389-.623.532-.595.5-.989.823-.835,1.543.246,1.143,1.24,1.641,2.961,1.486,1.932-.183,3.23-1.143,4.7-2.629,1.235-1.252,2.4-1.881,2.818-1.755.137.04.211.257.251.434a15.865,15.865,0,0,1,.126,6.734l-.046.28c-.314,1.846-1.24,9.815-1.315,11.872a3.511,3.511,0,0,0,.846,2.887,1.825,1.825,0,0,0,1.583.394c1.595-.292,1.841-2.7,2.064-4.819.069-.674.166-1.721.274-2.858.2-2.166.452-4.864.589-5.745a1.213,1.213,0,0,1,.217-.594l.017.034c.1.223.52,1.675,2.212,10.363.063.309.12.617.177.926.423,2.3.789,4.3,2.229,4.344a1.933,1.933,0,0,0,1.44-.532,2.346,2.346,0,0,0,.686-1.681c.011-.606-.217-2.778-.509-5.556l-.166-1.561c-.08-.783-.234-1.926-.394-3.138-.12-.892-.269-2.012-.377-2.95.131.252.28.537.446.869.309.629.823,1.949,1.366,3.344,1.332,3.4,2.246,5.682,2.9,6.3a1.786,1.786,0,0,0,2.149.383,2.115,2.115,0,0,0,.766-2.486c-.269-1.115-1.023-3.555-1.749-5.916-.44-1.429-.875-2.824-1.183-3.876a11.659,11.659,0,0,1-.314-1.3c.492.737,1.166,1.783,1.795,2.749,2.1,3.235,3.515,5.39,3.967,5.865a1.8,1.8,0,0,0,2.115.434,1.947,1.947,0,0,0,.846-2.246c-.177-.9-1.463-3.287-3.567-7.122a61.7,61.7,0,0,1-3-5.819,15.686,15.686,0,0,1-.354-2.9c-.08-1.143-.177-2.561-.44-4.247a8.723,8.723,0,0,0-2.532-4.773c-.149-.16-.326-.354-.412-.469.24-1.521,2.584-15.462,3.916-23.047A53.442,53.442,0,0,1,553.363,231.559Z" transform="translate(-322.258 -143.536)" fill="url(#linear-gradient-35)"/>
          <path id="Path_452" data-name="Path 452" d="M537.922,117.537H409.807s5.882,31.222-24.191,38.813v61.214c16.348,7.785,27.786,25.671,27.786,46.5a54.236,54.236,0,0,1-6.545,26.02c13.353,15.091,34.423,30.707,67,37.875,32.588-7.168,53.657-22.785,67.01-37.875a54.235,54.235,0,0,1-6.545-26.02c0-20.83,11.438-38.715,27.786-46.5V156.35C532.04,148.759,537.922,117.537,537.922,117.537ZM473.867,264.116a58.559,58.559,0,1,1,58.556-58.556A58.624,58.624,0,0,1,473.867,264.116Z" transform="translate(-296.088 -117.537)" fill="url(#linear-gradient-36)"/>
          <g id="Group_4471" data-name="Group 4471" transform="translate(58.065 117.867)">
            <circle id="Ellipse_17" data-name="Ellipse 17" cx="23.345" cy="23.345" r="23.345" transform="translate(192.733)" fill="url(#linear-gradient)"/>
            <circle id="Ellipse_18" data-name="Ellipse 18" cx="23.345" cy="23.345" r="23.345" fill="url(#linear-gradient)"/>
          </g>
        </g>
      </g>
    </g>
    <g id="Group_4475" data-name="Group 4475" transform="translate(19 1085.091)">
      <path id="Path_453" data-name="Path 453" d="M825.906,656.686c-1.877,1.049-3.665.652-5.5-.209-9.1-4.264-14.612-11.1-15.607-21.317a79.124,79.124,0,0,1,.02-14.975,2.123,2.123,0,0,1,1.693-2.115q7.884-2.237,15.747-4.545a3.943,3.943,0,0,1,2.3.029c5.193,1.518,10.388,3.033,15.6,4.5a2.146,2.146,0,0,1,1.766,2.064c.691,6.987.713,13.936-1.106,20.788a17.539,17.539,0,0,1-2.828,6.043c-.315-.275-.631-.549-.944-.826.138-.16.272-.319.409-.476,4.207-4.79,2.813-11.208-2.995-13.763a2.316,2.316,0,0,1-1.037-.656,10.316,10.316,0,0,0-.108-4.171,24.8,24.8,0,0,0-4.321-4.331c-4.453-.394-8.914-.141-13.372-.173-.853-.006-1.094.61-1.092,1.395q.02,10.214.011,20.429c0,1.03.441,1.516,1.511,1.5,2.754-.051,5.509-.054,8.263-.076l1.272.177a72.776,72.776,0,0,0-4.068,7.6c-.014.119-.028.238-.043.356l.332-.122a3.029,3.029,0,0,0,.99-.358c2.36-1.324,2.379-1.313,2.878,1.26C825.8,655.356,825.831,656.026,825.906,656.686Z" transform="translate(-645.28 494.541)" fill="#01288f"/>
      <path id="Path_454" data-name="Path 454" d="M730.1,659.822a1.78,1.78,0,0,1-.38.138c-4.531.275-4.527.273-5.571-4.159-.524-2.223-1.093-4.438-1.59-6.667-.471-2.113-2.09-.922-3.178-1.078-1.155-.166-.729.9-.736,1.463-.04,3.074-.049,6.149,0,9.223.014.9-.151,1.257-1.175,1.264-3.65.027-3.649.074-3.649-3.6,0-9.067.028-18.134-.033-27.2-.008-1.265.364-1.55,1.553-1.506,2.6.095,5.211-.015,7.814.064,3.579.109,5.442,1.758,6.024,5.31a30.338,30.338,0,0,1-.03,9.646,5.409,5.409,0,0,1-1.986,3.77c-.663.481-.4.94-.25,1.488Q728.522,653.9,730.1,659.822Zm-11.475-21.875V640.6c0,3.254,0,3.254,3.2,3.1,1.734-.083,2.373-.663,2.709-2.4a21.889,21.889,0,0,0,.2-4.359c-.032-4.386-.83-5.1-5.158-4.838-.758.046-.983.274-.964,1C718.657,634.719,718.629,636.333,718.628,637.946Z" transform="translate(-613.697 489.549)" fill="#01288f"/>
      <path id="Path_455" data-name="Path 455" d="M754.64,640.847c0-3.907.052-7.814-.031-11.718-.025-1.206.345-1.469,1.491-1.451,3.437.054,3.474,0,3.43,3.5-.091,7.289.243,14.583-.289,21.865-.015.208-.02.416-.037.624-.4,4.763-2.284,6.519-7.091,6.617-.364.007-.729.008-1.094,0-4.993-.089-6.827-1.821-7.163-6.84-.554-8.273-.154-16.557-.285-24.835-.01-.646.141-1.008.858-.9a.842.842,0,0,0,.156,0c3.763-.164,3.725-.164,3.761,3.627.067,7.236-.244,14.477.212,21.71.143,2.256.889,2.917,3.144,2.895,1.974-.02,2.779-.738,2.82-2.907.076-4.06.022-8.122.022-12.184Z" transform="translate(-624.065 489.564)" fill="#01288f"/>
      <path id="Path_456" data-name="Path 456" d="M774.415,643.764c0-4.9.033-9.791-.026-14.685-.014-1.1.3-1.4,1.391-1.38,3.384.068,6.77.049,10.154.008.871-.01,1.274.1,1.275,1.149,0,3.271.058,3.26-3.194,3.276-1.5.007-3.525-.512-4.362.25-.969.882-.228,2.936-.295,4.479-.049,1.144.048,2.3-.027,3.436-.062.927.169,1.293,1.182,1.234,1.609-.093,3.228,0,4.842-.037.679-.018.856.2.9.882.207,3.514.23,3.513-3.252,3.513-3.649,0-3.649,0-3.649,3.72,0,1.562.055,3.127-.02,4.686-.047.977.181,1.371,1.257,1.317,1.87-.094,3.749,0,5.623-.04.727-.017.957.182.99.947.151,3.458.18,3.457-3.314,3.457-2.76,0-5.521-.042-8.28.023-.979.023-1.221-.285-1.212-1.235C774.439,653.764,774.415,648.764,774.415,643.764Z" transform="translate(-634.807 489.549)" fill="#01288f"/>
      <path id="Path_457" data-name="Path 457" d="M691.362,646.036c0-4.115-.064-8.232.036-12.345.033-1.355-.4-1.774-1.649-1.557a2.809,2.809,0,0,1-.469,0c-3.567,0-3.544,0-3.256-3.544.056-.692.293-.876.936-.873,4.584.018,9.168.009,13.751.01.419,0,.867-.046.86.6-.011,1.093-.006,2.188-.006,3.281,0,.409-.253.523-.6.526-.209,0-.417-.008-.625.006-1.332.092-3.158-.59-3.863.3-.667.84-.213,2.586-.214,3.933-.008,7.4-.033,14.793.026,22.19.01,1.185-.307,1.474-1.468,1.454-3.456-.059-3.458,0-3.458-3.51Z" transform="translate(-603.984 489.541)" fill="#01288f"/>
      <path id="Path_458" data-name="Path 458" d="M730.815,706.359c-3.222.4-3.215.4-3.918-2.519-.364-1.512-.831-3-1.118-4.529-.24-1.284-1.149-.721-1.823-.8-.932-.113-.78.58-.781,1.133,0,1.977-.05,3.955.014,5.931.048,1.452-.994.878-1.614.894-.637.016-1.6.5-1.592-.927.046-6.555.02-13.111.02-19.666,0-.473-.055-.972.674-.936,2.178.108,4.369-.162,6.539.233a3.308,3.308,0,0,1,2.839,2.735,18.4,18.4,0,0,1,.006,7.582c-.071.352-.135.821-.378,1-1.6,1.2-.824,2.631-.451,4.024C729.754,702.458,730.284,704.4,730.815,706.359Zm-7.64-14.561c0,.985-.006,1.969,0,2.954,0,.293-.076.618.254.824,1.267.789,3.58-.262,3.718-1.774a23.022,23.022,0,0,0,.018-3.879c-.134-1.721-.772-2.025-2.972-1.988-1.765.029-.841,1.282-1,2A8.894,8.894,0,0,0,723.175,691.8Z" transform="translate(-615.855 469.61)" fill="#01288f"/>
      <path id="Path_459" data-name="Path 459" d="M816.108,706.427c-1.285.33-1.773-.24-1.851-1.389-.042-.618-.277-1.226-.295-1.842-.039-1.4-.6-1.938-2.086-1.856-2.486.138-2.492.036-2.917,2.9-.351,2.358-.35,2.285-2.587,2.27-1.017-.007-.961-.487-.841-1.146q1.462-8.038,2.932-16.073c.065-.358.122-.716.179-1.075.533-3.333.534-3.273,3.956-3.337,1.086-.02,1.4.393,1.562,1.33.95,5.416,1.939,10.826,2.911,16.239a15.644,15.644,0,0,0,.406,2.294C817.975,706.208,817.67,706.867,816.108,706.427Zm-4.417-17.62-.237-.027c-.419,2.48-.869,4.955-1.248,7.441-.344,2.26-.31,2.239,2.016,2.184.767-.018,1.059-.087.877-1.027C812.55,694.538,812.15,691.667,811.691,688.808Z" transform="translate(-645.634 469.628)" fill="#01288f"/>
      <path id="Path_460" data-name="Path 460" d="M703.273,695.727c0-3.228.027-6.457-.018-9.685-.012-.863.21-1.174,1.117-1.148,2.133.063,4.272.082,6.4,0,1.385-.055.974.877,1,1.563.029.74.257,1.686-1.062,1.5a.692.692,0,0,0-.156,0c-1.279.117-3.377-.54-3.674.264-.594,1.6-.231,3.565-.248,5.379,0,.5.371.551.757.553q.937,0,1.875.005c1.852,0,2.294.6,1.874,2.418-.091.392-.251.525-.61.519-.208,0-.417,0-.625,0-3.3.057-3.3.057-3.3,3.309,0,3.17,0,3.147,3.323,3.19.785.01,1.894-.542,1.9,1.156.008,1.426-.37,1.872-1.8,1.765a36.07,36.07,0,0,0-5.307,0c-1.315.1-1.514-.426-1.488-1.573C703.32,701.873,703.273,698.8,703.273,695.727Z" transform="translate(-610.024 469.625)" fill="#01288f"/>
      <path id="Path_461" data-name="Path 461" d="M862.132,703.626c3.638.164,4.107-.288,4-3.864-.068-2.254-.265-2.487-2.527-2.988-3.751-.831-3.923-1.026-4.189-4.734-.442-6.174,2.008-8.31,8.125-7.23,1.587.281,1.092,1.346,1.116,2.218.033,1.2-.881.409-1.35.557a1.988,1.988,0,0,1-.621,0c-3.809-.106-4.309.459-4.053,4.283a1.761,1.761,0,0,0,1.648,1.885c.1.016.2.041.306.063,4.107.873,4.7,1.574,4.7,5.733a18.755,18.755,0,0,1-.2,2.949c-.479,3.04-1.732,4.109-4.833,4.12a29.258,29.258,0,0,1-2.951-.246c-1.59-.158-2-.789-1.661-2.336.115-.519.4-.523.773-.5C860.99,703.558,861.561,703.594,862.132,703.626Z" transform="translate(-664.41 469.747)" fill="#01288f"/>
      <path id="Path_462" data-name="Path 462" d="M843.869,695.707c0-3.179.044-6.358-.025-9.535-.023-1.047.306-1.32,1.312-1.283,2.029.074,4.069.113,6.093-.01,1.352-.081,1.091.739,1.085,1.484-.007.779.31,1.808-1.126,1.585a1.711,1.711,0,0,0-.469,0c-1.2.145-3.155-.573-3.473.373-.551,1.636-.169,3.593-.143,5.414.006.4.4.419.713.424.677.01,1.355.007,2.032.008,1.817,0,2.272.641,1.858,2.422-.151.65-.57.467-.942.494-1.182.085-2.741-.5-3.454.242-.774.809-.221,2.377-.24,3.611-.04,2.638-.012,2.638,2.6,2.638h.938a1.7,1.7,0,0,1,1.7,2.549c-.165.4-.461.348-.753.349-2.292.006-4.586-.032-6.877.021-.912.022-.833-.5-.833-1.095Q843.877,700.551,843.869,695.707Z" transform="translate(-659.003 469.631)" fill="#01288f"/>
      <path id="Path_463" data-name="Path 463" d="M766.26,695.68c0-3.127.043-6.255-.023-9.381-.023-1.05.193-1.477,1.347-1.417,1.924.1,3.859.094,5.783.005,1.375-.064,1,.855,1.015,1.552.018.731.284,1.606-1.052,1.537-1.179-.061-2.745-.527-3.459.2-.786.8-.227,2.373-.246,3.607-.041,2.779-.01,2.854,2.841,2.769,1.246-.038,1.422.405,1.443,1.5.021,1.172-.3,1.507-1.482,1.477-2.813-.07-2.815-.006-2.815,2.833,0,1.72-.033,3.441.015,5.159.022.753-.231.952-.972.978-2.4.083-2.4.117-2.4-2.22Z" transform="translate(-631.967 469.63)" fill="#01288f"/>
      <path id="Path_464" data-name="Path 464" d="M791.062,695.752a57.219,57.219,0,0,1,.325-6.73c.619-4.524,3.631-4.776,7.31-4.093,1.126.208.456,1.417.554,2.165.1.794-.543.537-.966.534-.364,0-.728-.033-1.091-.035-2.026-.012-2.534.353-2.738,2.339A62.012,62.012,0,0,0,794.406,701c.181,2.369.8,2.753,3.229,2.713.568-.01,1.641-.847,1.707.688.051,1.193-.007,1.99-1.59,2.18-4.083.49-5.875-.766-6.428-4.786A54.309,54.309,0,0,1,791.062,695.752Z" transform="translate(-640.616 469.711)" fill="#01288f"/>
      <path id="Path_465" data-name="Path 465" d="M687.309,695.707a49.691,49.691,0,0,1,.4-7.219,5.141,5.141,0,0,1,7.337-3.693c1.005.5.4,1.494.455,2.251.061.82-.642.411-1.029.435-.517.032-1.04-.007-1.561-.02a1.837,1.837,0,0,0-2.125,1.789,57.512,57.512,0,0,0,.009,12.455c.181,1.593.91,1.931,3.015,1.84,1.842-.08,2.018.13,1.776,1.894a.8.8,0,0,1-.74.82c-3.912.739-6.855.078-7.285-4.528C687.364,699.652,687.4,697.573,687.309,695.707Z" transform="translate(-604.472 469.846)" fill="#01288f"/>
      <path id="Path_466" data-name="Path 466" d="M828.783,697.171c0-2.655-.037-5.31.02-7.963.02-.93-.2-1.389-1.2-1.235a5.106,5.106,0,0,1-.779.006,1.851,1.851,0,0,1-1.622-2.768c.233-.423.63-.286.967-.287,2.758-.011,5.519.055,8.275-.033,1.361-.044,1.047.824,1.026,1.532-.02.676.4,1.573-.983,1.587-2.487.024-2.487.1-2.487,2.667,0,4.788-.059,9.578.038,14.365.027,1.342-.489,1.461-1.591,1.476-1.17.016-1.776-.1-1.7-1.542C828.881,702.381,828.783,699.773,828.783,697.171Z" transform="translate(-652.424 469.626)" fill="#01288f"/>
      <path id="Path_467" data-name="Path 467" d="M741.651,697.166c0-2.657-.039-5.316.021-7.973.021-.93-.186-1.387-1.191-1.227-.3.048-.633-.04-.936.016-1.35.249-1.482-.482-1.493-1.588-.011-1.088.166-1.57,1.426-1.516,2.549.111,5.109.109,7.658,0,1.286-.054,1.314.589,1.249,1.507-.055.78.291,1.652-1.145,1.623-2.425-.05-2.427.046-2.427,2.428,0,4.9-.074,9.8.044,14.694.037,1.53-.735,1.335-1.7,1.365-1.009.031-1.611-.016-1.545-1.359C741.742,702.486,741.651,699.824,741.651,697.166Z" transform="translate(-622.148 469.631)" fill="#01288f"/>
      <path id="Path_468" data-name="Path 468" d="M759.893,695.684c0,3.228-.063,6.458.026,9.684.045,1.61-1.033,1.052-1.785,1.1-.8.055-1.591.26-1.573-1.151q.121-9.605,0-19.213c-.02-1.532.889-1.168,1.7-1.187.861-.021,1.722-.252,1.666,1.237C759.809,689.328,759.893,692.508,759.893,695.684Z" transform="translate(-628.596 469.624)" fill="#01288f"/>
      <path id="Path_469" data-name="Path 469" d="M785.121,695.847c0,3.173-.074,6.348.034,9.518.049,1.454-.839,1.122-1.6,1.106-.732-.016-1.642.394-1.626-1.075q.1-9.673,0-19.348c-.017-1.432.819-1.137,1.6-1.123.752.014,1.668-.362,1.627,1.092C785.058,689.291,785.121,692.57,785.121,695.847Z" transform="translate(-637.433 469.625)" fill="#01288f"/>
      <path id="Path_470" data-name="Path 470" d="M851.866,663.632l.946.824c.854,2.429,2.376,4.541,3.536,7.245-1.168-.579-2.044-.973-2.88-1.437-.779-.432-1.2-.408-1.328.622-.132,1.075-.412,2.132-.666,3.383-1.371-1.508-1.832-3.422-3.041-4.846l-.3-.641-.029-.059c-.169-1.073-1.362-1.8-1.033-3.042A7.84,7.84,0,0,0,851.866,663.632Z" transform="translate(-660.107 477.031)" fill="#e1b730"/>
      <path id="Path_471" data-name="Path 471" d="M835.027,674.115c-.076-.66-.107-1.329-.233-1.98-.5-2.573-.517-2.584-2.878-1.26a3.031,3.031,0,0,1-.99.358l-.29-.235a72.914,72.914,0,0,1,4.069-7.6,7.73,7.73,0,0,0,5.085,2.209c.135.689-.315,1.183-.59,1.729-1.071,2.126-2.435,4.1-3.333,6.316C835.614,673.857,835.5,674.306,835.027,674.115Z" transform="translate(-654.402 477.112)" fill="#e1b730"/>
      <path id="Path_472" data-name="Path 472" d="M838.662,674.83c.9-2.218,2.262-4.19,3.333-6.316.275-.545.725-1.039.592-1.729l1.576-.008c-.331,1.242.862,1.969,1.031,3.042-.564.013-1.31-.71-1.652.1-.39.919-1.308,1.652-1.11,2.8A12.962,12.962,0,0,1,838.662,674.83Z" transform="translate(-657.198 475.935)" fill="#1a2d8b"/>
      <path id="Path_473" data-name="Path 473" d="M844.432,674.189c-.2-1.15.719-1.883,1.11-2.8.342-.806,1.088-.083,1.652-.1l.029.059q.021.359.041.717A10.357,10.357,0,0,1,844.432,674.189Z" transform="translate(-659.198 474.462)" fill="#1d308d"/>
      <path id="Path_474" data-name="Path 474" d="M848.771,672.251q-.021-.359-.041-.717l.3.641A.728.728,0,0,1,848.771,672.251Z" transform="translate(-660.705 474.278)" fill="#1a2d8b"/>
      <path id="Path_475" data-name="Path 475" d="M838.7,631.935a10.326,10.326,0,0,1,.108,4.17c-3.695-.145-7.359.508-11.063.378-1.505-.053-3.138-.581-4.578.416,1.439.862,3.008.208,4.509.376,1.3.145,2.632-.152,3.968.169-1.187,1.881-2.675,2.835-4.872,2.477a15.347,15.347,0,0,0-2.653-.016c-.409.007-.825.042-.934.687a18.328,18.328,0,0,0,3.879.149c1.7.043,2.084.708,1.25,2.184-.379.672-1,.63-1.626.668a14.213,14.213,0,0,0-3.511.187c.151.209.2.348.261.35,1.089.038,2.184.125,3.27.068,1.32-.07,1.344.727,1.405,1.7.068,1.093-.523,1.183-1.348,1.157-.936-.028-1.875-.01-2.813,0-.3,0-.723-.055-.719.373,0,.355.382.454.7.461.729.016,1.458.016,2.188.016,2.659,0,2.822.127,3.578,2.768-2.755.021-5.51.024-8.263.076-1.071.02-1.512-.466-1.511-1.5q.006-10.215-.011-20.43c0-.785.239-1.4,1.092-1.394,4.458.032,8.919-.221,13.372.173C834.123,632.161,834.123,632.161,838.7,631.935Zm-6.783,1.52-.008-.3h-8.64l.007.3Z" transform="translate(-650.665 489.66)" fill="#dedfdf"/>
      <path id="Path_476" data-name="Path 476" d="M831.435,655.327c-.756-2.641-.919-2.766-3.577-2.768-.73,0-1.459,0-2.188-.016-.323-.007-.7-.106-.7-.461,0-.427.422-.369.719-.373.938-.012,1.877-.03,2.813,0,.826.025,1.417-.064,1.348-1.157-.061-.972-.085-1.769-1.4-1.7-1.086.057-2.18-.03-3.27-.068-.057,0-.109-.141-.261-.35a14.207,14.207,0,0,1,3.511-.187c.624-.038,1.247,0,1.626-.668.833-1.477.446-2.141-1.25-2.184a18.317,18.317,0,0,1-3.879-.149c.109-.645.525-.68.934-.687a15.336,15.336,0,0,1,2.654.016c2.2.358,3.685-.6,4.872-2.477-1.336-.321-2.67-.023-3.968-.169-1.5-.168-3.069.486-4.509-.376,1.441-1,3.073-.469,4.578-.416,3.7.13,7.369-.523,11.063-.378a2.307,2.307,0,0,0,1.037.657c5.808,2.556,7.2,8.974,2.995,13.763-.137.156-.271.315-.409.476a7.841,7.841,0,0,1-4.8,2.05l-1.574.009a7.731,7.731,0,0,1-5.086-2.209Zm5.227-5.514c-.084-.414.329-.981-.309-1.219-.476-.177-.757.222-1.047.506a7.325,7.325,0,0,0-1.067,1.125,2.394,2.394,0,0,0,.182,3.136,2.161,2.161,0,0,0,2.949.459,11.854,11.854,0,0,0,1.831-1.662.552.552,0,0,0,.06-.828c-.33-.363-.644-.208-.943.054-.5.444-.977.929-1.515,1.324a1,1,0,0,1-1.4-.19,1.091,1.091,0,0,1-.18-1.423,1.871,1.871,0,0,1,1.14-.985c.36,1.516.642,1.624,1.7.621.6-.571,1.192-1.161,1.765-1.762.35-.367.858-.643.89-1.228.042-.777-.911-.464-1.207-.989.688-.729,1.335-1.613,2.344-.7.949.86.151,1.575-.452,2.232-.246.268-.508.52-.748.793a.529.529,0,0,0-.055.709.507.507,0,0,0,.678.207,4.417,4.417,0,0,0,2.184-2.532,2.366,2.366,0,0,0-.868-2.514c-1.08-.955-2.545-.643-3.944.8-1.118,1.156-1.058,1.382.6,1.808C838.445,648.443,837.925,649.528,836.662,649.813Z" transform="translate(-652.403 485.006)" fill="#70bbf0"/>
      <path id="Path_477" data-name="Path 477" d="M846.382,632.054c-4.573.226-4.573.226-4.321-4.331A24.8,24.8,0,0,1,846.382,632.054Z" transform="translate(-658.351 489.54)" fill="#70bbf0"/>
      <path id="Path_478" data-name="Path 478" d="M830.9,675.294l-.332.122c.015-.119.029-.238.043-.356Z" transform="translate(-654.379 473.05)" fill="#e1b730"/>
      <path id="Path_479" data-name="Path 479" d="M833.705,636.544h-8.641l-.007-.3h8.64Z" transform="translate(-652.458 486.57)" fill="#70bbf0"/>
      <path id="Path_480" data-name="Path 480" d="M842.782,651.772c1.263-.285,1.783-1.37,2.589-2.252-1.656-.425-1.716-.652-.6-1.808,1.4-1.447,2.864-1.759,3.944-.8a2.366,2.366,0,0,1,.868,2.514,4.417,4.417,0,0,1-2.184,2.532.507.507,0,0,1-.678-.207.529.529,0,0,1,.055-.709c.24-.273.5-.525.748-.793.6-.657,1.4-1.372.452-2.232-1.009-.914-1.656-.031-2.344.7.3.525,1.249.212,1.207.989-.031.585-.54.861-.889,1.228-.573.6-1.161,1.191-1.765,1.762-1.062,1-1.344.895-1.7-.621l-.014.014c.259.042.366-.068.326-.326Z" transform="translate(-658.524 483.047)" fill="#fcfdfd"/>
      <path id="Path_481" data-name="Path 481" d="M841.089,654.288a1.872,1.872,0,0,0-1.14.985,1.091,1.091,0,0,0,.18,1.423,1,1,0,0,0,1.4.19c.538-.4,1.011-.88,1.515-1.324.3-.263.613-.417.943-.054a.552.552,0,0,1-.06.828A11.855,11.855,0,0,1,842.1,658a2.161,2.161,0,0,1-2.949-.459,2.394,2.394,0,0,1-.182-3.136,7.325,7.325,0,0,1,1.067-1.125c.29-.285.571-.684,1.047-.506.639.238.225.8.31,1.219l.012-.014a.292.292,0,0,0-.326.326Z" transform="translate(-657.13 480.83)" fill="#fcfdfd"/>
      <path id="Path_482" data-name="Path 482" d="M842.469,654.97a.293.293,0,0,1,.326-.326C842.835,654.9,842.728,655.012,842.469,654.97Z" transform="translate(-658.524 480.162)" fill="#70bbf0"/>
    </g>
    <rect id="Rectangle_144" data-name="Rectangle 144" width="1919" height="237" transform="translate(1 1081)" fill="#ff3a00"/>
    <g id="Group_4526" data-name="Group 4526" transform="translate(-320)">
      <text id="Do_you_also_want_to_issue_manage_verify_own_and_share_all_your_credentials_online_Safety_Security_Surety" data-name="Do you also want to issue, manage, verify, own and share all your credentials online?
Safety     Security     Surety" transform="translate(1109 1141)" fill="#fff" font-size="22" font-family="SegoeUI, Segoe UI"><tspan x="0" y="0">Do you also want to issue, manage, verify, own and share all your credentials online?</tspan><tspan x="0" y="37" xml:space="preserve">Safety     Security     Surety</tspan></text>
      <g transform="matrix(1, 0, 0, 1, 320, 0)" filter="url(#Rectangle_145)">
        <rect id="Rectangle_145-2" data-name="Rectangle 145" width="232" height="72" rx="36" transform="translate(789 1211)" fill="#fff"/>
      </g>
      <text id="Learn_more" data-name="Learn more" transform="translate(1170 1256)" fill="#ff3a00" font-size="22" font-family="SegoeUI, Segoe UI"><tspan x="0" y="0">Learn more</tspan></text>
    </g>
    <g id="Mask_Group_1" data-name="Mask Group 1" transform="translate(109 74.639)" clip-path="url(#clip-path)">
      <g id="Group_4525" data-name="Group 4525" transform="translate(83.087 867.012)">
        <g id="Group_4486" data-name="Group 4486" transform="translate(0 302.102)">
          <g id="Group_4485" data-name="Group 4485">
            <g id="Group_4481" data-name="Group 4481" transform="translate(0 2.491)">
              <g id="Group_4480" data-name="Group 4480">
                <g id="Group_4479" data-name="Group 4479">
                  <path id="Path_483" data-name="Path 483" d="M323.965,292.347s27.369,181.823,23.386,190.612S215.6,632.26,215.6,632.26l-47.089-31.2S280.117,460.543,279.276,457.169s-42.3-179.446-42.3-179.446Z" transform="translate(-168.512 -277.723)" fill="#bf3f19"/>
                </g>
              </g>
            </g>
            <g id="Group_4484" data-name="Group 4484" transform="translate(48.995)">
              <g id="Group_4483" data-name="Group 4483">
                <g id="Group_4482" data-name="Group 4482">
                  <path id="Path_484" data-name="Path 484" d="M195.8,276.536l-1.654,6.749a79.427,79.427,0,0,0,8.344,58.6L276.7,470.516a103.353,103.353,0,0,1,11.372,29.241l33.5,148.577h51.69c0,3.1-13.374-122.394-20.072-164.07-5.055-31.434-47.12-129-67.5-175.079l12.625-15.533-21.931-3.662Z" transform="translate(-191.86 -276.536)" fill="#bf3f19"/>
                </g>
              </g>
            </g>
          </g>
        </g>
        <g id="Group_4487" data-name="Group 4487" transform="translate(144.421 334.397)">
          <path id="Path_485" data-name="Path 485" d="M237.344,291.927a9.645,9.645,0,0,1,1.144,2.046c.674,1.345,1.6,3.314,2.711,5.762,2.22,4.9,5.139,11.731,8.115,19.378s5.439,14.662,7.108,19.774c.837,2.554,1.484,4.631,1.895,6.079a9.684,9.684,0,0,1,.539,2.279,9.671,9.671,0,0,1-.942-2.145q-.91-2.443-2.22-5.96c-1.855-5.041-4.43-12-7.4-19.632s-5.771-14.5-7.809-19.47l-2.388-5.895A9.644,9.644,0,0,1,237.344,291.927Z" transform="translate(-237.333 -291.926)" fill="#0f1f60"/>
        </g>
        <g id="Group_4488" data-name="Group 4488" transform="translate(89.529 419.288)">
          <path id="Path_486" data-name="Path 486" d="M272.181,463.15a7.4,7.4,0,0,1-.336-1.448l-.751-4.176q-.233-1.379-.514-3.018-.368-1.653-.793-3.559c-.571-2.55-1.156-5.469-2.084-8.627l-1.354-4.982q-.818-2.569-1.7-5.332c-1.1-3.708-2.638-7.552-4.1-11.642-3.188-8.094-7.064-16.843-11.59-25.807a486.182,486.182,0,0,0-26.08-44.337c-3.584-5.416-6.507-9.838-8.612-13.015-.963-1.467-1.74-2.644-2.334-3.546a7.894,7.894,0,0,1-.753-1.28,7.434,7.434,0,0,1,.934,1.154c.638.871,1.469,2.01,2.5,3.429,2.159,2.99,5.221,7.362,8.906,12.832a429.49,429.49,0,0,1,26.41,44.27c4.543,8.994,8.407,17.793,11.556,25.94,1.448,4.121,2.955,7.991,4.027,11.728q.853,2.78,1.645,5.372.674,2.616,1.291,5.024c.883,3.183,1.419,6.125,1.937,8.7l.705,3.586q.23,1.653.422,3.045c.227,1.742.409,3.141.55,4.214A7.7,7.7,0,0,1,272.181,463.15Z" transform="translate(-211.175 -332.379)" fill="#0f1f60"/>
        </g>
        <path id="Path_487" data-name="Path 487" d="M222.886,232.015c-4.522.441-9.271.118-13.29-2.006s-7.145-6.335-7-10.879c.084-2.659,1.238-5.284.8-7.907s-2.39-4.724-3.645-7.085a14.7,14.7,0,0,1,3.941-17.995c2.751-2.094,6.262-3.192,8.568-5.767,2.728-3.049,3.165-7.454,4.829-11.191a18.112,18.112,0,0,1,13.479-10.329c3.217-.508,6.587-.134,9.672-1.179,2.636-.892,4.82-2.736,7.15-4.26a33.108,33.108,0,0,1,24.67-4.623,19.793,19.793,0,0,1,10,4.921c2.995,2.978,6.866,6.207,7.947,10.291,1.274,4.816-.285,10.86-1.58,15.672s-5.158,9.215-10.106,9.8" transform="translate(-135.909 -115.516)" fill="#0f1f60"/>
        <g id="Group_4504" data-name="Group 4504" transform="translate(77.576 53.848)">
          <g id="Group_4497" data-name="Group 4497" transform="translate(8.341)">
            <g id="Group_4496" data-name="Group 4496">
              <g id="Group_4490" data-name="Group 4490">
                <g id="Group_4489" data-name="Group 4489">
                  <path id="Path_488" data-name="Path 488" d="M209.454,258l39.41.56c.674-4.543,2.01-22.242,2.01-22.242s16.513-1,18.244-17.252,2.432-53.881,2.432-53.881h0a56.807,56.807,0,0,0-57.5,1.794l-2.585,1.628Z" transform="translate(-209.454 -158.236)" fill="#ffbe9d"/>
                </g>
              </g>
              <g id="Group_4493" data-name="Group 4493" transform="translate(42.73 30.625)">
                <g id="Group_4492" data-name="Group 4492" transform="translate(0)">
                  <g id="Group_4491" data-name="Group 4491">
                    <path id="Path_489" data-name="Path 489" d="M229.816,192.437c0-.176,1.414-.327,3.7-.426.592-.008,1.064-.1,1.137-.409a3.2,3.2,0,0,0-.262-1.719c-.436-1.536-.879-3.091-1.343-4.722-1.838-6.717-3.051-12.239-2.709-12.331s2.107,5.276,3.943,11.993c.43,1.639.842,3.2,1.247,4.749a3.75,3.75,0,0,1,.092,2.466,1.548,1.548,0,0,1-1.1.842,3.861,3.861,0,0,1-1.012.036C231.226,192.783,229.816,192.613,229.816,192.437Z" transform="translate(-229.816 -172.829)" fill="#0f1f60"/>
                  </g>
                </g>
              </g>
              <g id="Group_4495" data-name="Group 4495" transform="translate(20.823 69.822)">
                <g id="Group_4494" data-name="Group 4494" transform="translate(0)">
                  <path id="Path_490" data-name="Path 490" d="M240.022,199.533a38.012,38.012,0,0,1-20.645-8.025s3.912,12.182,20.286,12.245Z" transform="translate(-219.377 -191.508)" fill="#eb996e"/>
                </g>
              </g>
            </g>
          </g>
          <g id="Group_4503" data-name="Group 4503" transform="translate(0 27.321)">
            <g id="Group_4499" data-name="Group 4499">
              <g id="Group_4498" data-name="Group 4498">
                <path id="Path_491" data-name="Path 491" d="M216.032,171.408c-.321-.132-11.139-1.9-10.528,10.965s13.4,7.989,13.4,7.62S216.032,171.408,216.032,171.408Z" transform="translate(-205.479 -171.255)" fill="#ffbe9d"/>
              </g>
            </g>
            <g id="Group_4502" data-name="Group 4502" transform="translate(3.295 4.349)">
              <g id="Group_4501" data-name="Group 4501">
                <g id="Group_4500" data-name="Group 4500">
                  <path id="Path_492" data-name="Path 492" d="M213.027,183.391c-.059-.04-.216.166-.585.359a2.25,2.25,0,0,1-1.675.113c-1.381-.434-2.627-2.537-2.8-4.852a7.434,7.434,0,0,1,.474-3.238,2.589,2.589,0,0,1,1.6-1.8,1.139,1.139,0,0,1,1.351.55c.191.353.122.613.191.632.036.029.264-.229.136-.755a1.437,1.437,0,0,0-.544-.781,1.685,1.685,0,0,0-1.255-.269,3.15,3.15,0,0,0-2.245,2.1,7.574,7.574,0,0,0-.607,3.622c.206,2.587,1.647,4.948,3.532,5.4a2.406,2.406,0,0,0,2.033-.436C213.019,183.7,213.074,183.412,213.027,183.391Z" transform="translate(-207.049 -173.328)" fill="#eb996e"/>
                </g>
              </g>
            </g>
          </g>
        </g>
        <g id="Group_4505" data-name="Group 4505" transform="translate(113.981 78.165)">
          <path id="Path_493" data-name="Path 493" d="M222.875,172.666c-.176-.229.13-.839.963-1.479a7.525,7.525,0,0,1,7.754-.533c.913.52,1.3,1.083,1.158,1.333-.323.533-2.409-.178-4.959.036C225.236,172.158,223.268,173.149,222.875,172.666Z" transform="translate(-222.827 -169.823)" fill="#0f1f60"/>
        </g>
        <g id="Group_4506" data-name="Group 4506" transform="translate(136.834 79.75)">
          <path id="Path_494" data-name="Path 494" d="M233.723,171.977c-.113-.585,1.649-1.406,3.96-1.4s4.069.835,3.954,1.419c-.113.6-1.874.768-3.96.768S233.832,172.577,233.723,171.977Z" transform="translate(-233.717 -170.579)" fill="#0f1f60"/>
        </g>
        <path id="Path_495" data-name="Path 495" d="M208.567,178.319q.916,5.934,1.832,11.863c.287,1.859.627,3.834,1.882,5.236,2.075,2.317,5.909,2.115,8.6.55,3.926-2.287,6.084-6.665,7.737-10.9s3.127-8.723,6.323-11.953a15.663,15.663,0,0,0,18.068,3.33c2.623-1.32,4.806-3.364,7.322-4.873s5.664-2.468,8.375-1.345c1.488.617,2.825,1.838,4.432,1.767a3.587,3.587,0,0,0,2.888-1.985,6.136,6.136,0,0,0,.529-3.574c-.533-4.55-4.258-8.153-8.369-10.169-5.867-2.879-12.614-3.269-19.149-3.286a72.386,72.386,0,0,0-18.467,1.826c-6,1.565-11.779,4.5-15.909,9.131s-6.436,11.078-5.274,17.172" transform="translate(-124.511 -110.158)" fill="#0f1f60"/>
        <path id="Path_496" data-name="Path 496" d="M233.633,162.35a19.455,19.455,0,0,0,6.189,10.744,8.325,8.325,0,0,0,5.446,2.441c3.305-.071,5.857-3.435,5.937-6.74s-1.75-6.386-4.023-8.789c-2.176-2.3-5.02-4.245-8.188-4.321s-6.505,2.321-6.545,5.49" transform="translate(-98.279 -107.192)" fill="#0f1f60"/>
        <g id="Group_4507" data-name="Group 4507" transform="translate(116.4 85.188)">
          <path id="Path_497" data-name="Path 497" d="M223.98,175.075a2.061,2.061,0,0,0,2.029,2.04,1.973,1.973,0,0,0,2.088-1.9,2.066,2.066,0,0,0-2.029-2.042A1.972,1.972,0,0,0,223.98,175.075Z" transform="translate(-223.98 -173.17)" fill="#0f1f60"/>
        </g>
        <g id="Group_4509" data-name="Group 4509" transform="translate(112.974 82.603)">
          <g id="Group_4508" data-name="Group 4508" transform="translate(0)">
            <path id="Path_498" data-name="Path 498" d="M222.382,174.187c.262.264,1.8-.923,4.019-.963,2.216-.069,3.868,1.039,4.1.762.115-.122-.155-.6-.873-1.1a5.667,5.667,0,0,0-3.29-.942,5.424,5.424,0,0,0-3.192,1.1C222.476,173.579,222.254,174.07,222.382,174.187Z" transform="translate(-222.348 -171.938)" fill="#0f1f60"/>
          </g>
        </g>
        <g id="Group_4510" data-name="Group 4510" transform="translate(139.118 85.121)">
          <path id="Path_499" data-name="Path 499" d="M234.806,175.043a2.061,2.061,0,0,0,2.029,2.04,1.973,1.973,0,0,0,2.088-1.9,2.066,2.066,0,0,0-2.029-2.042A1.972,1.972,0,0,0,234.806,175.043Z" transform="translate(-234.806 -173.138)" fill="#0f1f60"/>
        </g>
        <g id="Group_4512" data-name="Group 4512" transform="translate(136.14 82.94)">
          <g id="Group_4511" data-name="Group 4511" transform="translate(0)">
            <path id="Path_500" data-name="Path 500" d="M233.421,174.348c.26.264,1.8-.923,4.019-.961,2.216-.071,3.868,1.037,4.1.76.115-.122-.153-.6-.875-1.1a5.657,5.657,0,0,0-3.29-.942,5.449,5.449,0,0,0-3.192,1.1C233.515,173.74,233.293,174.231,233.421,174.348Z" transform="translate(-233.387 -172.099)" fill="#0f1f60"/>
          </g>
        </g>
        <path id="Path_501" data-name="Path 501" d="M232.955,188.647c.023.134-.552.39-1.544.329a5.365,5.365,0,0,1-4.936-5.164c-.017-.995.266-1.557.4-1.53.3,0,.069,2.407,1.874,4.3S232.967,188.347,232.955,188.647Z" transform="translate(-104.841 -77.973)" fill="#0f1f60"/>
        <path id="Path_502" data-name="Path 502" d="M233.226,231.1l32.749-10.952s22.807,53.938,28.676,54.473c32.512,2.965,67.3-7.815,79.5-12.077,1.238-1.389,2.653-3.06,4.228-5.1a19.543,19.543,0,0,0,3.06-5.842c.829-2.552,1.794-5.987,1.74-8.033-.069-2.531,2.976-3.828,4.384-2.008s1.767,8.786-1.444,16.282,8.151,1.532,12.329-.567,17.411-7.985,19.075-7.213c2.436,1.135,1.67,3.958-2.552,5.956-4.273,2.023-16.459,8.883-15.244,11.036,1.2,2.122,22.322-8.852,22.322-8.852s4.136-3.074,5.622-.634c2.682,4.4-20.637,14.415-22.88,15.311-1.557.625-.321,3.011,1.318,2.254,1.685-.783,20.817-11.437,23.589-6.978,2.126,3.421-19.1,8.413-21.843,12.826s15.716-5.423,17.613-2.071c.705,1.249,1.062,2.275-10.354,6.394-5.54,2-15.984,4.461-25.442,6.495l.042.117S272.225,344.5,251.095,293.759C229.57,242.069,233.226,231.1,233.226,231.1Z" transform="translate(-97.681 -36.372)" fill="#eb996e"/>
        <path id="Path_503" data-name="Path 503" d="M326.681,259.481c-13.105-30.7-30.288-42.728-39.349-47.166a26.287,26.287,0,0,0-10.144-2.608h0l-1.089-5.276-43.45-3.912-1.064,6.713-6.375-.344s-37.456,3.748-37.523,47.133c-.031,20.293,10.927,40.035,14.794,49.707,2.411,20.238-6.27,56.924-6.035,65.874L302.9,377.157l4.505-66.546-1-6.243,35.045-10.732Zm-94.032-52.19Z" transform="translate(-147.449 -57.939)" fill="#ebebeb"/>
        <path id="Path_504" data-name="Path 504" d="M515.847,182.752A123.688,123.688,0,0,0,296.6,247.277v0A123.608,123.608,0,0,0,338.357,353.6L230.089,480.652l15.537,13.242L354.808,365.767a122.927,122.927,0,0,0,51.636,17.64,125.863,125.863,0,0,0,13.38.716,123.7,123.7,0,0,0,96.024-201.371Zm6.43,88.645a103.27,103.27,0,1,1-22.315-75.828A102.607,102.607,0,0,1,522.277,271.4Z" transform="translate(-100.869 -128.014)" fill="#0f1f60"/>
        <path id="Path_505" data-name="Path 505" d="M512.38,178.6a123.688,123.688,0,0,0-219.246,64.525v0A123.608,123.608,0,0,0,334.89,349.445L225.312,477.54l16.61,13.286L351.34,361.614a122.917,122.917,0,0,0,51.636,17.64,125.887,125.887,0,0,0,13.38.716A123.7,123.7,0,0,0,512.38,178.6Zm6.43,88.645a103.27,103.27,0,1,1-22.316-75.828A102.606,102.606,0,0,1,518.81,267.244Z" transform="translate(-106.117 -132.576)" fill="#bf3f19"/>
        <path id="Path_506" data-name="Path 506" d="M301.221,282.553a5.081,5.081,0,0,1-.816-.909c-.5-.627-1.27-1.521-2.147-2.76a94,94,0,0,1-6.894-10.864,102.307,102.307,0,0,1-7-82.39,93.937,93.937,0,0,1,4.961-11.869c.657-1.37,1.27-2.382,1.649-3.083a5.031,5.031,0,0,1,.653-1.032,5.255,5.255,0,0,1-.455,1.133c-.317.732-.867,1.773-1.463,3.165a112.256,112.256,0,0,0-4.613,11.93,105.107,105.107,0,0,0,6.95,81.781A112.331,112.331,0,0,0,298.6,278.64c.823,1.272,1.54,2.2,1.975,2.873A5.213,5.213,0,0,1,301.221,282.553Z" transform="translate(-47.346 -91.853)" fill="#0f1f60"/>
        <path id="Path_507" data-name="Path 507" d="M294.46,162.948c.183.254-1.077,1.427-2.334,3.081-1.276,1.641-2.086,3.158-2.378,3.049-.277-.088.124-1.922,1.511-3.714S294.305,162.7,294.46,162.948Z" transform="translate(-35.422 -99.256)" fill="#0f1f60"/>
        <g id="Group_4513" data-name="Group 4513" transform="translate(150.208 178.355)">
          <path id="Path_508" data-name="Path 508" d="M240.111,217.567a15.637,15.637,0,0,1,.76,2.9c.424,1.88.976,4.61,1.61,8,1.27,6.766,2.8,16.161,4.09,26.588s2.088,19.919,2.5,26.792c.21,3.435.338,6.218.384,8.144a16,16,0,0,1-.032,2.995,15.647,15.647,0,0,1-.392-2.969c-.191-2.122-.436-4.845-.73-8.113-.611-6.847-1.532-16.3-2.816-26.714s-2.692-19.8-3.767-26.592c-.508-3.24-.934-5.941-1.265-8.046A15.932,15.932,0,0,1,240.111,217.567Z" transform="translate(-240.09 -217.567)" fill="#0f1f60"/>
        </g>
        <g id="Group_4514" data-name="Group 4514" transform="translate(51.462 209.787)">
          <path id="Path_509" data-name="Path 509" d="M349.714,304.2S232.267,356.89,211.139,306.15C189.615,254.462,193.27,243.5,193.27,243.5l32.749-10.952s22.807,53.938,28.676,54.473c32.512,2.965,67.3-7.815,79.5-12.077,1.238-1.389,2.65-3.06,4.226-5.1,1.349-1.754,2.755-4.281,4.138-6.012,3.1-3.884,5.557-4.533,6.912-6.065,3.244-3.668,6.207-.988,4.8.986-1.337,1.872-4.9,4-8.1,11.489s8.224,3.813,12.748,2.623c5-1.316,14.392-4.965,14.392-4.965.218,2.2-2.273,6.631-6.495,8.629a67.047,67.047,0,0,1-7.036,2.927s8.682-1.053,8.912.923-2.569,16.616-11.806,20.964Z" transform="translate(-193.035 -232.545)" fill="#ffbe9d"/>
        </g>
        <path id="Path_510" data-name="Path 510" d="M222.97,210.139l21.1,63.738L197.893,292.13s-24.091-62.592,6.417-77.916Z" transform="translate(-146.158 -47.372)" fill="#ebebeb"/>
        <g id="Group_4515" data-name="Group 4515" transform="translate(64.428 153.374)">
          <path id="Path_511" data-name="Path 511" d="M235.766,276.312c-.023.019-.258-.166-.625-.6a11.75,11.75,0,0,1-1.383-2.05,70.413,70.413,0,0,1-3.332-8.386c-2.585-7.143-6.088-17.036-9.89-27.984-1.884-5.469-3.679-10.681-5.322-15.449-1.628-4.743-2.9-9.133-5.326-11.983a9.725,9.725,0,0,0-7.544-3.748,9.587,9.587,0,0,0-3.129.749c-.017-.025.21-.222.709-.5a6.2,6.2,0,0,1,2.4-.678,10,10,0,0,1,8.157,3.675c2.644,2.967,4.017,7.469,5.687,12.152,1.668,4.759,3.49,9.962,5.4,15.42,3.8,10.948,7.19,20.88,9.588,28.089,1.223,3.6,2.067,6.56,2.98,8.449C235.03,275.378,235.844,276.249,235.766,276.312Z" transform="translate(-199.214 -205.663)" fill="#0f1f60"/>
        </g>
        <g id="Group_4516" data-name="Group 4516" transform="translate(51.621 225.201)">
          <path id="Path_512" data-name="Path 512" d="M241.49,239.9a7.552,7.552,0,0,1-1.748,1.1c-1.156.646-2.856,1.53-4.976,2.579-4.237,2.1-10.182,4.835-16.878,7.538s-12.876,4.86-17.386,6.285c-2.256.714-4.092,1.257-5.372,1.595a7.616,7.616,0,0,1-2.019.424c-.048-.153,2.7-1.14,7.141-2.749s10.549-3.876,17.227-6.568,12.648-5.3,16.96-7.223S241.419,239.759,241.49,239.9Z" transform="translate(-193.111 -239.891)" fill="#0f1f60"/>
        </g>
        <g id="Group_4517" data-name="Group 4517" transform="translate(55.504 232.923)">
          <path id="Path_513" data-name="Path 513" d="M198.769,253.055c-.281.111-1.345-1.922-2.378-4.539s-1.643-4.831-1.362-4.942,1.345,1.922,2.378,4.541S199.051,252.946,198.769,253.055Z" transform="translate(-194.961 -243.57)" fill="#0f1f60"/>
        </g>
        <g id="Group_4518" data-name="Group 4518" transform="translate(65.652 229.505)">
          <path id="Path_514" data-name="Path 514" d="M203.2,251.1c-.256.143-1.536-1.7-2.455-4.285s-1.114-4.816-.825-4.869.953,2.008,1.853,4.5S203.476,250.949,203.2,251.1Z" transform="translate(-199.797 -241.941)" fill="#0f1f60"/>
        </g>
        <g id="Group_4519" data-name="Group 4519" transform="translate(75.658 224.781)">
          <path id="Path_515" data-name="Path 515" d="M208.2,249.139c-.252.151-1.635-1.727-2.623-4.4s-1.173-5-.883-5.045.946,2.094,1.91,4.665C207.547,246.932,208.466,248.984,208.2,249.139Z" transform="translate(-204.565 -239.69)" fill="#0f1f60"/>
        </g>
        <g id="Group_4520" data-name="Group 4520" transform="translate(86.993 219.754)">
          <path id="Path_516" data-name="Path 516" d="M213.2,247.347c-.287.09-1.226-2.086-2.094-4.86s-1.339-5.1-1.051-5.19,1.226,2.086,2.094,4.862S213.486,247.257,213.2,247.347Z" transform="translate(-209.967 -237.295)" fill="#0f1f60"/>
        </g>
        <g id="Group_4521" data-name="Group 4521" transform="translate(158.961 234.976)">
          <path id="Path_517" data-name="Path 517" d="M280.151,244.573c.092.288-7.869,3.079-17.779,6.235s-18.018,5.481-18.11,5.194,7.867-3.079,17.779-6.235S280.059,244.285,280.151,244.573Z" transform="translate(-244.262 -244.549)" fill="#0f1f60"/>
        </g>
        <g id="Group_4522" data-name="Group 4522" transform="translate(163.523 235.088)">
          <path id="Path_518" data-name="Path 518" d="M249.633,251.922c-.277.12-1.2-1.423-2.061-3.442s-1.335-3.754-1.058-3.872,1.2,1.423,2.063,3.444S249.912,251.8,249.633,251.922Z" transform="translate(-246.435 -244.602)" fill="#0f1f60"/>
        </g>
        <g id="Group_4523" data-name="Group 4523" transform="translate(173.201 231.625)">
          <path id="Path_519" data-name="Path 519" d="M253.6,251.693c-.275.113-1.272-1.712-1.939-4.168s-.749-4.531-.455-4.573.852,1.9,1.509,4.285S253.89,251.579,253.6,251.693Z" transform="translate(-251.047 -242.952)" fill="#0f1f60"/>
        </g>
        <g id="Group_4524" data-name="Group 4524" transform="translate(183.493 228.294)">
          <path id="Path_520" data-name="Path 520" d="M257.925,250.328c-.3.061-.944-1.9-1.45-4.371s-.674-4.533-.378-4.591.944,1.9,1.45,4.373S258.221,250.27,257.925,250.328Z" transform="translate(-255.952 -241.364)" fill="#0f1f60"/>
        </g>
        <path id="Path_521" data-name="Path 521" d="M211.366,206.126c-.3-.023-.464-1.186-.363-2.6s.426-2.545.726-2.524.464,1.186.363,2.6S211.668,206.147,211.366,206.126Z" transform="translate(-121.868 -57.41)" fill="#0f1f60"/>
        <path id="Path_522" data-name="Path 522" d="M216.066,206.386c-.3.013-.592-1.123-.648-2.537s.141-2.571.443-2.583.592,1.125.648,2.539S216.366,206.376,216.066,206.386Z" transform="translate(-116.997 -57.119)" fill="#0f1f60"/>
        <path id="Path_523" data-name="Path 523" d="M219.52,207.093c-.3,0-.535-1.192-.525-2.657s.266-2.65.569-2.648.535,1.192.525,2.657S219.822,207.1,219.52,207.093Z" transform="translate(-113.056 -56.545)" fill="#0f1f60"/>
        <path id="Path_524" data-name="Path 524" d="M224.5,208.1c-.283.076-.884-1.286-.934-3.085s.457-3.2.747-3.137.29,1.438.346,3.1S224.8,208.022,224.5,208.1Z" transform="translate(-108.042 -56.451)" fill="#0f1f60"/>
        <path id="Path_525" data-name="Path 525" d="M228.467,208.1c-.3.036-.709-1.328-.915-3.045s-.13-3.137.17-3.175.709,1.328.915,3.045S228.768,208.061,228.467,208.1Z" transform="translate(-103.783 -56.449)" fill="#0f1f60"/>
      </g>
    </g>
  </g>
</svg>
